<svg width="155" height="79" viewBox="0 0 155 79" fill="none" xmlns="http://www.w3.org/2000/svg">
<g clip-path="url(#clip0_112_567)">
<circle cx="3.1919" cy="6.09986" r="8.89966" fill="#444463"/>
<circle cx="25.791" cy="6.09982" r="7.97946" fill="#444463"/>
<circle cx="48.675" cy="6.09979" r="7.18036" fill="#444463"/>
<circle cx="71.7043" cy="6.09981" r="6.425" fill="#444463"/>
<circle cx="95.097" cy="6.09976" r="5.72732" fill="#444463"/>
<circle cx="118.272" cy="6.09973" r="4.82678" fill="#444463"/>
<circle cx="141.156" cy="6.09975" r="3.08327" fill="#444463"/>
<circle cx="14.7789" cy="17.0826" r="7.97937" fill="#444463"/>
<circle cx="-7.34602" cy="17.0824" r="8.98869" fill="#444463"/>
<circle cx="37.3781" cy="17.0825" r="7.72625" fill="#444463"/>
<circle cx="60.2619" cy="17.0826" r="6.42499" fill="#444463"/>
<circle cx="83.2912" cy="17.0826" r="5.72722" fill="#444463"/>
<circle cx="106.684" cy="17.0825" r="4.82675" fill="#444463"/>
<circle cx="129.859" cy="17.0825" r="3.33936" fill="#444463"/>
<circle cx="152.743" cy="17.0826" r="1.83856" fill="#444463"/>
<circle cx="14.7787" cy="-5.8888" r="7.97937" fill="#444463"/>
<circle cx="-7.34627" cy="-5.88899" r="8.98869" fill="#444463"/>
<circle cx="37.3779" cy="-5.88899" r="7.72625" fill="#444463"/>
<circle cx="60.2617" cy="-5.88885" r="6.42499" fill="#444463"/>
<circle cx="3.1919" cy="28.7061" r="8.89966" fill="#444463"/>
<circle cx="25.791" cy="28.706" r="7.97946" fill="#444463"/>
<circle cx="48.675" cy="28.706" r="7.18036" fill="#444463"/>
<circle cx="71.7043" cy="28.706" r="6.425" fill="#444463"/>
<circle cx="95.097" cy="28.706" r="5.72732" fill="#444463"/>
<circle cx="118.272" cy="28.7059" r="4.82678" fill="#444463"/>
<circle cx="141.156" cy="28.706" r="3.08327" fill="#444463"/>
<circle cx="14.7789" cy="39.6888" r="7.97937" fill="#444463"/>
<circle cx="-7.34602" cy="39.6886" r="8.98869" fill="#444463"/>
<circle cx="37.3781" cy="39.6887" r="7.72625" fill="#444463"/>
<circle cx="60.2619" cy="39.6888" r="6.42499" fill="#444463"/>
<circle cx="83.2912" cy="39.6888" r="5.72722" fill="#444463"/>
<circle cx="106.684" cy="39.6887" r="4.82675" fill="#444463"/>
<circle cx="129.859" cy="39.6887" r="3.33936" fill="#444463"/>
<circle cx="152.743" cy="39.6888" r="1.83856" fill="#444463"/>
<circle cx="3.1919" cy="51.3123" r="8.89966" fill="#444463"/>
<circle cx="25.791" cy="51.3122" r="7.97946" fill="#444463"/>
<circle cx="48.675" cy="51.3122" r="7.18036" fill="#444463"/>
<circle cx="71.7043" cy="51.3122" r="6.425" fill="#444463"/>
<circle cx="95.097" cy="51.3122" r="5.72732" fill="#444463"/>
<circle cx="118.272" cy="51.3121" r="4.82678" fill="#444463"/>
<circle cx="141.156" cy="51.3122" r="3.08327" fill="#444463"/>
<circle cx="14.7789" cy="62.295" r="7.97937" fill="#444463"/>
<circle cx="-7.34602" cy="62.2948" r="8.98869" fill="#444463"/>
<circle cx="37.3781" cy="62.2949" r="7.72625" fill="#444463"/>
<circle cx="60.2619" cy="62.295" r="6.42499" fill="#444463"/>
<circle cx="83.2912" cy="62.295" r="5.72722" fill="#444463"/>
<circle cx="106.684" cy="62.2949" r="4.82675" fill="#444463"/>
<circle cx="129.859" cy="62.2949" r="3.33936" fill="#444463"/>
<circle cx="152.743" cy="62.295" r="1.83856" fill="#444463"/>
<circle cx="3.1919" cy="73.9185" r="8.89966" fill="#444463"/>
<circle cx="25.791" cy="73.9184" r="7.97946" fill="#444463"/>
<circle cx="48.675" cy="73.9184" r="7.18036" fill="#444463"/>
<circle cx="71.7043" cy="73.9184" r="6.425" fill="#444463"/>
<circle cx="95.097" cy="73.9184" r="5.72732" fill="#444463"/>
<circle cx="118.272" cy="73.9183" r="4.82678" fill="#444463"/>
<circle cx="141.156" cy="73.9184" r="3.08327" fill="#444463"/>
<circle cx="14.7789" cy="84.9012" r="7.97937" fill="#444463"/>
<circle cx="-7.34602" cy="84.901" r="8.98869" fill="#444463"/>
<circle cx="37.3781" cy="84.9011" r="7.72625" fill="#444463"/>
<circle cx="60.2619" cy="84.9012" r="6.42499" fill="#444463"/>
</g>
<defs>
<clipPath id="clip0_112_567">
<rect width="155" height="79" fill="white"/>
</clipPath>
</defs>
</svg>
