<?xml version="1.0" encoding="UTF-8" standalone="no"?>
<svg
   xmlns:dc="http://purl.org/dc/elements/1.1/"
   xmlns:cc="http://creativecommons.org/ns#"
   xmlns:rdf="http://www.w3.org/1999/02/22-rdf-syntax-ns#"
   xmlns:svg="http://www.w3.org/2000/svg"
   xmlns="http://www.w3.org/2000/svg"
   xmlns:sodipodi="http://sodipodi.sourceforge.net/DTD/sodipodi-0.dtd"
   xmlns:inkscape="http://www.inkscape.org/namespaces/inkscape"
   inkscape:version="1.0 (4035a4f, 2020-05-01)"
   sodipodi:docname="icon-wall-sq-4.svg"
   id="svg268"
   version="1.1"
   fill="none"
   viewBox="0 0 471 406"
   height="406"
   width="471">
  <metadata
     id="metadata274">
    <rdf:RDF>
      <cc:Work
         rdf:about="">
        <dc:format>image/svg+xml</dc:format>
        <dc:type
           rdf:resource="http://purl.org/dc/dcmitype/StillImage" />
        <dc:title></dc:title>
      </cc:Work>
    </rdf:RDF>
  </metadata>
  <defs
     id="defs272" />
  <sodipodi:namedview
     inkscape:current-layer="svg268"
     inkscape:window-maximized="0"
     inkscape:window-y="25"
     inkscape:window-x="0"
     inkscape:cy="450.85614"
     inkscape:cx="84.908259"
     inkscape:zoom="1.0352428"
     showguides="true"
     inkscape:snap-bbox-midpoints="false"
     inkscape:snap-bbox-edge-midpoints="false"
     inkscape:bbox-paths="true"
     inkscape:bbox-nodes="true"
     inkscape:snap-bbox="true"
     showgrid="false"
     id="namedview270"
     inkscape:window-height="1266"
     inkscape:window-width="1747"
     inkscape:pageshadow="2"
     inkscape:pageopacity="0"
     guidetolerance="10"
     gridtolerance="10"
     objecttolerance="10"
     borderopacity="1"
     bordercolor="#666666"
     pagecolor="#ffffff" />
     <g id="pattern4">
  <g
     id="g288">
    <path
       d="m 60.4651,298.525 h 3.0103 l -10.8909,72.606 h -3.0103 z"
       fill="#ffffff"
       fill-opacity="0.75"
       id="path258" />
    <path
       d="m 99.1963,303.062 c 0.7408,-4.937 -21.1806,-4.541 -33.0157,-4.541 l -4.3876,29.246 c 11.3216,-0.661 33.7707,-0.684 32.9921,4.496 -0.3858,2.572 -1.8767,2.475 -2.0684,3.76 -0.5159,3.441 24.0723,1.894 27.5393,1.536 l -7.431,-14.575 11.79,-14.694 c -5.93,0.618 -27.9911,1.68 -27.5273,-1.406 0.2462,-1.647 1.8176,-1.881 2.1086,-3.822 z"
       fill="#ffffff"
       fill-opacity="0.75"
       id="path260" />
    <path
       d="m 220.589,190.986 -13.006,56.449 c -3.479,-3.166 -8.803,-5.182 -14.767,-5.165 -10.462,0.042 -18.927,6.323 -18.902,14.041 0.025,7.717 8.533,13.94 18.995,13.906 9.064,0 16.611,-4.744 18.456,-11.017 v -0.059 c 0.084,-0.311 0.143,-0.622 0.21,-0.941 l 7.809,-34.673 c 13.73,3.057 20.997,6.975 21.8,11.756 0.791,4.836 -0.225,9.793 -2.856,13.932 7.761,-4.479 12.026,-11.048 12.796,-19.709 0.769,-8.661 -9.409,-21.501 -30.535,-38.52 z"
       fill="#fba6cf"
       fill-opacity="0.75"
       id="path262" />
    <path
       d="m 470.614,15.5744 c 0,2.1126 -1.781,3.8922 -3.894,3.8922 -2.113,0 -3.893,-1.7796 -3.893,-3.8922 0,-2.1125 1.78,-3.8922 3.893,-3.8922 2.114,0 3.894,1.6678 3.894,3.8922 z m -71.642,-4.2261 c -2.113,0 -3.893,1.7796 -3.893,3.8922 0,2.1126 1.78,3.8922 3.893,3.8922 2.113,0 3.893,-1.7796 3.893,-3.8922 10e-4,-2.1126 -1.779,-3.8922 -3.893,-3.8922 z M 432.567,1.33936 c -2.113,0 -3.893,1.77961 -3.893,3.89217 0,2.11261 1.78,3.89218 3.893,3.89218 2.113,0 3.893,-1.77961 3.893,-3.89218 0,-2.11352 -1.668,-3.89217 -3.893,-3.89217 z m -24.251,46.26504 1.447,5.116 h 44.83 l 1.78,-5.116 z m 54.732,-28.805 c -3.561,3.2253 -9.456,7.4514 -15.352,7.4514 -7.009,0 -11.903,-10.7879 -14.017,-16.2378 -0.334,0.111 -0.779,0.111 -1.112,0.111 -0.334,0 -0.667,0 -1.001,-0.111 -2.002,5.4499 -7.23,16.2378 -14.907,16.2378 -6.34,0 -11.57,-4.1151 -14.573,-7.2285 -0.556,0.4449 -1.112,0.6669 -1.78,0.8898 l 6.898,23.7983 h 50.502 l 7.343,-23.5775 c -0.779,-0.223 -1.446,-0.6679 -2.002,-1.3348 z"
       fill="#ffffc7"
       fill-opacity="0.75"
       id="path264" />
    <path
       fill-rule="evenodd"
       clip-rule="evenodd"
       d="m 291.05,126.024 c -1.952,1.953 -1.952,5.119 0,7.071 l 34.713,34.712 c 1.952,1.953 5.118,1.953 7.071,0 l 34.712,-34.712 c 1.952,-1.952 1.952,-5.118 0,-7.071 L 332.834,91.3121 c -1.953,-1.9526 -5.119,-1.9526 -7.071,0 z m 25.713,0 c -1.952,1.953 -1.952,5.119 0,7.071 l 9,9 c 1.952,1.952 5.118,1.952 7.071,0 l 8.999,-9 c 1.953,-1.952 1.953,-5.118 0,-7.071 l -8.999,-8.999 c -1.953,-1.953 -5.119,-1.953 -7.071,0 z"
       fill="#ffffff"
       fill-opacity="0.75"
       id="path266" />
  </g>
  <g
     transform="translate(-470.614)"
     id="g302">
    <path
       id="path292"
       fill-opacity="0.75"
       fill="#ffffff"
       d="m 60.4651,298.525 h 3.0103 l -10.8909,72.606 h -3.0103 z" />
    <path
       id="path294"
       fill-opacity="0.75"
       fill="#ffffff"
       d="m 99.1963,303.062 c 0.7408,-4.937 -21.1806,-4.541 -33.0157,-4.541 l -4.3876,29.246 c 11.3216,-0.661 33.7707,-0.684 32.9921,4.496 -0.3858,2.572 -1.8767,2.475 -2.0684,3.76 -0.5159,3.441 24.0723,1.894 27.5393,1.536 l -7.431,-14.575 11.79,-14.694 c -5.93,0.618 -27.9911,1.68 -27.5273,-1.406 0.2462,-1.647 1.8176,-1.881 2.1086,-3.822 z" />
    <path
       id="path296"
       fill-opacity="0.75"
       fill="#fba6cf"
       d="m 220.589,190.986 -13.006,56.449 c -3.479,-3.166 -8.803,-5.182 -14.767,-5.165 -10.462,0.042 -18.927,6.323 -18.902,14.041 0.025,7.717 8.533,13.94 18.995,13.906 9.064,0 16.611,-4.744 18.456,-11.017 v -0.059 c 0.084,-0.311 0.143,-0.622 0.21,-0.941 l 7.809,-34.673 c 13.73,3.057 20.997,6.975 21.8,11.756 0.791,4.836 -0.225,9.793 -2.856,13.932 7.761,-4.479 12.026,-11.048 12.796,-19.709 0.769,-8.661 -9.409,-21.501 -30.535,-38.52 z" />
    <path
       id="path298"
       fill-opacity="0.75"
       fill="#ffffc7"
       d="m 470.614,15.5744 c 0,2.1126 -1.781,3.8922 -3.894,3.8922 -2.113,0 -3.893,-1.7796 -3.893,-3.8922 0,-2.1125 1.78,-3.8922 3.893,-3.8922 2.114,0 3.894,1.6678 3.894,3.8922 z m -71.642,-4.2261 c -2.113,0 -3.893,1.7796 -3.893,3.8922 0,2.1126 1.78,3.8922 3.893,3.8922 2.113,0 3.893,-1.7796 3.893,-3.8922 10e-4,-2.1126 -1.779,-3.8922 -3.893,-3.8922 z M 432.567,1.33936 c -2.113,0 -3.893,1.77961 -3.893,3.89217 0,2.11261 1.78,3.89218 3.893,3.89218 2.113,0 3.893,-1.77961 3.893,-3.89218 0,-2.11352 -1.668,-3.89217 -3.893,-3.89217 z m -24.251,46.26504 1.447,5.116 h 44.83 l 1.78,-5.116 z m 54.732,-28.805 c -3.561,3.2253 -9.456,7.4514 -15.352,7.4514 -7.009,0 -11.903,-10.7879 -14.017,-16.2378 -0.334,0.111 -0.779,0.111 -1.112,0.111 -0.334,0 -0.667,0 -1.001,-0.111 -2.002,5.4499 -7.23,16.2378 -14.907,16.2378 -6.34,0 -11.57,-4.1151 -14.573,-7.2285 -0.556,0.4449 -1.112,0.6669 -1.78,0.8898 l 6.898,23.7983 h 50.502 l 7.343,-23.5775 c -0.779,-0.223 -1.446,-0.6679 -2.002,-1.3348 z" />
    <path
       id="path300"
       fill-opacity="0.75"
       fill="#ffffff"
       d="m 291.05,126.024 c -1.952,1.953 -1.952,5.119 0,7.071 l 34.713,34.712 c 1.952,1.953 5.118,1.953 7.071,0 l 34.712,-34.712 c 1.952,-1.952 1.952,-5.118 0,-7.071 L 332.834,91.3121 c -1.953,-1.9526 -5.119,-1.9526 -7.071,0 z m 25.713,0 c -1.952,1.953 -1.952,5.119 0,7.071 l 9,9 c 1.952,1.952 5.118,1.952 7.071,0 l 8.999,-9 c 1.953,-1.952 1.953,-5.118 0,-7.071 l -8.999,-8.999 c -1.953,-1.953 -5.119,-1.953 -7.071,0 z"
       clip-rule="evenodd"
       fill-rule="evenodd" />
  </g>
  <g
     transform="translate(0,406.025)"
     id="g316">
    <path
       id="path306"
       fill-opacity="0.75"
       fill="#ffffff"
       d="m 60.4651,298.525 h 3.0103 l -10.8909,72.606 h -3.0103 z" />
    <path
       id="path308"
       fill-opacity="0.75"
       fill="#ffffff"
       d="m 99.1963,303.062 c 0.7408,-4.937 -21.1806,-4.541 -33.0157,-4.541 l -4.3876,29.246 c 11.3216,-0.661 33.7707,-0.684 32.9921,4.496 -0.3858,2.572 -1.8767,2.475 -2.0684,3.76 -0.5159,3.441 24.0723,1.894 27.5393,1.536 l -7.431,-14.575 11.79,-14.694 c -5.93,0.618 -27.9911,1.68 -27.5273,-1.406 0.2462,-1.647 1.8176,-1.881 2.1086,-3.822 z" />
    <path
       id="path310"
       fill-opacity="0.75"
       fill="#fba6cf"
       d="m 220.589,190.986 -13.006,56.449 c -3.479,-3.166 -8.803,-5.182 -14.767,-5.165 -10.462,0.042 -18.927,6.323 -18.902,14.041 0.025,7.717 8.533,13.94 18.995,13.906 9.064,0 16.611,-4.744 18.456,-11.017 v -0.059 c 0.084,-0.311 0.143,-0.622 0.21,-0.941 l 7.809,-34.673 c 13.73,3.057 20.997,6.975 21.8,11.756 0.791,4.836 -0.225,9.793 -2.856,13.932 7.761,-4.479 12.026,-11.048 12.796,-19.709 0.769,-8.661 -9.409,-21.501 -30.535,-38.52 z" />
    <path
       id="path312"
       fill-opacity="0.75"
       fill="#ffffc7"
       d="m 470.614,15.5744 c 0,2.1126 -1.781,3.8922 -3.894,3.8922 -2.113,0 -3.893,-1.7796 -3.893,-3.8922 0,-2.1125 1.78,-3.8922 3.893,-3.8922 2.114,0 3.894,1.6678 3.894,3.8922 z m -71.642,-4.2261 c -2.113,0 -3.893,1.7796 -3.893,3.8922 0,2.1126 1.78,3.8922 3.893,3.8922 2.113,0 3.893,-1.7796 3.893,-3.8922 10e-4,-2.1126 -1.779,-3.8922 -3.893,-3.8922 z M 432.567,1.33936 c -2.113,0 -3.893,1.77961 -3.893,3.89217 0,2.11261 1.78,3.89218 3.893,3.89218 2.113,0 3.893,-1.77961 3.893,-3.89218 0,-2.11352 -1.668,-3.89217 -3.893,-3.89217 z m -24.251,46.26504 1.447,5.116 h 44.83 l 1.78,-5.116 z m 54.732,-28.805 c -3.561,3.2253 -9.456,7.4514 -15.352,7.4514 -7.009,0 -11.903,-10.7879 -14.017,-16.2378 -0.334,0.111 -0.779,0.111 -1.112,0.111 -0.334,0 -0.667,0 -1.001,-0.111 -2.002,5.4499 -7.23,16.2378 -14.907,16.2378 -6.34,0 -11.57,-4.1151 -14.573,-7.2285 -0.556,0.4449 -1.112,0.6669 -1.78,0.8898 l 6.898,23.7983 h 50.502 l 7.343,-23.5775 c -0.779,-0.223 -1.446,-0.6679 -2.002,-1.3348 z" />
    <path
       id="path314"
       fill-opacity="0.75"
       fill="#ffffff"
       d="m 291.05,126.024 c -1.952,1.953 -1.952,5.119 0,7.071 l 34.713,34.712 c 1.952,1.953 5.118,1.953 7.071,0 l 34.712,-34.712 c 1.952,-1.952 1.952,-5.118 0,-7.071 L 332.834,91.3121 c -1.953,-1.9526 -5.119,-1.9526 -7.071,0 z m 25.713,0 c -1.952,1.953 -1.952,5.119 0,7.071 l 9,9 c 1.952,1.952 5.118,1.952 7.071,0 l 8.999,-9 c 1.953,-1.952 1.953,-5.118 0,-7.071 l -8.999,-8.999 c -1.953,-1.953 -5.119,-1.953 -7.071,0 z"
       clip-rule="evenodd"
       fill-rule="evenodd" />
  </g>
  <g
     id="g330"
     transform="translate(-470.614,406.025)">
    <path
       d="m 60.4651,298.525 h 3.0103 l -10.8909,72.606 h -3.0103 z"
       fill="#ffffff"
       fill-opacity="0.75"
       id="path320" />
    <path
       d="m 99.1963,303.062 c 0.7408,-4.937 -21.1806,-4.541 -33.0157,-4.541 l -4.3876,29.246 c 11.3216,-0.661 33.7707,-0.684 32.9921,4.496 -0.3858,2.572 -1.8767,2.475 -2.0684,3.76 -0.5159,3.441 24.0723,1.894 27.5393,1.536 l -7.431,-14.575 11.79,-14.694 c -5.93,0.618 -27.9911,1.68 -27.5273,-1.406 0.2462,-1.647 1.8176,-1.881 2.1086,-3.822 z"
       fill="#ffffff"
       fill-opacity="0.75"
       id="path322" />
    <path
       d="m 220.589,190.986 -13.006,56.449 c -3.479,-3.166 -8.803,-5.182 -14.767,-5.165 -10.462,0.042 -18.927,6.323 -18.902,14.041 0.025,7.717 8.533,13.94 18.995,13.906 9.064,0 16.611,-4.744 18.456,-11.017 v -0.059 c 0.084,-0.311 0.143,-0.622 0.21,-0.941 l 7.809,-34.673 c 13.73,3.057 20.997,6.975 21.8,11.756 0.791,4.836 -0.225,9.793 -2.856,13.932 7.761,-4.479 12.026,-11.048 12.796,-19.709 0.769,-8.661 -9.409,-21.501 -30.535,-38.52 z"
       fill="#fba6cf"
       fill-opacity="0.75"
       id="path324" />
    <path
       d="m 470.614,15.5744 c 0,2.1126 -1.781,3.8922 -3.894,3.8922 -2.113,0 -3.893,-1.7796 -3.893,-3.8922 0,-2.1125 1.78,-3.8922 3.893,-3.8922 2.114,0 3.894,1.6678 3.894,3.8922 z m -71.642,-4.2261 c -2.113,0 -3.893,1.7796 -3.893,3.8922 0,2.1126 1.78,3.8922 3.893,3.8922 2.113,0 3.893,-1.7796 3.893,-3.8922 10e-4,-2.1126 -1.779,-3.8922 -3.893,-3.8922 z M 432.567,1.33936 c -2.113,0 -3.893,1.77961 -3.893,3.89217 0,2.11261 1.78,3.89218 3.893,3.89218 2.113,0 3.893,-1.77961 3.893,-3.89218 0,-2.11352 -1.668,-3.89217 -3.893,-3.89217 z m -24.251,46.26504 1.447,5.116 h 44.83 l 1.78,-5.116 z m 54.732,-28.805 c -3.561,3.2253 -9.456,7.4514 -15.352,7.4514 -7.009,0 -11.903,-10.7879 -14.017,-16.2378 -0.334,0.111 -0.779,0.111 -1.112,0.111 -0.334,0 -0.667,0 -1.001,-0.111 -2.002,5.4499 -7.23,16.2378 -14.907,16.2378 -6.34,0 -11.57,-4.1151 -14.573,-7.2285 -0.556,0.4449 -1.112,0.6669 -1.78,0.8898 l 6.898,23.7983 h 50.502 l 7.343,-23.5775 c -0.779,-0.223 -1.446,-0.6679 -2.002,-1.3348 z"
       fill="#ffffc7"
       fill-opacity="0.75"
       id="path326" />
    <path
       fill-rule="evenodd"
       clip-rule="evenodd"
       d="m 291.05,126.024 c -1.952,1.953 -1.952,5.119 0,7.071 l 34.713,34.712 c 1.952,1.953 5.118,1.953 7.071,0 l 34.712,-34.712 c 1.952,-1.952 1.952,-5.118 0,-7.071 L 332.834,91.3121 c -1.953,-1.9526 -5.119,-1.9526 -7.071,0 z m 25.713,0 c -1.952,1.953 -1.952,5.119 0,7.071 l 9,9 c 1.952,1.952 5.118,1.952 7.071,0 l 8.999,-9 c 1.953,-1.952 1.953,-5.118 0,-7.071 l -8.999,-8.999 c -1.953,-1.953 -5.119,-1.953 -7.071,0 z"
       fill="#ffffff"
       fill-opacity="0.75"
       id="path328" />
  </g>
  
  <animateTransform attributeName="transform"
  type="translate"
  from="0 0"
  to="471 -406"
  begin="0s"
  dur="10s"
  repeatCount="indefinite"
/>
</g>

</svg>
