<svg width="110" height="140" viewBox="0 0 110 140" fill="none" xmlns="http://www.w3.org/2000/svg">
<g clip-path="url(#clip0_47_295)">
<path d="M-44.9893 69.9892L-0.399502 69.9895L44.1903 69.9892L-0.399502 8.37301L-44.9893 69.9892Z" fill="white" fill-opacity="0.15"/>
<path d="M65.2549 69.9892L109.845 69.9895L154.434 69.9892L109.845 8.37301L65.2549 69.9892Z" fill="white" fill-opacity="0.15"/>
<path d="M10.4102 8.37315L54.9999 8.37282L99.5897 8.37315L54.9999 69.9893L10.4102 8.37315Z" fill="white" fill-opacity="0.15"/>
<path d="M154.435 78.3839L109.845 78.3836L65.2551 78.3839L109.845 140L154.435 78.3839Z" fill="white" fill-opacity="0.15"/>
<path d="M44.1904 78.3839L-0.399326 78.3836L-44.9891 78.3839L-0.399326 140L44.1904 78.3839Z" fill="white" fill-opacity="0.15"/>
<path d="M99.0352 140L54.4454 140L9.85564 140L54.4454 78.3838L99.0352 140Z" fill="white" fill-opacity="0.15"/>
</g>
<defs>
<clipPath id="clip0_47_295">
<rect width="110" height="140" fill="white"/>
</clipPath>
</defs>
</svg>
