<svg width="640" height="280" viewBox="0 0 640 280" fill="none" xmlns="http://www.w3.org/2000/svg">
<mask id="path-1-outside-1_3_43" maskUnits="userSpaceOnUse" x="13.7344" y="101.94" width="613" height="76" fill="black">
<rect fill="white" x="13.7344" y="101.94" width="613" height="76"/>
<path d="M31.1444 130.315L50.1844 163.975L69.2244 130.315L73.5594 169.5H81.6344L74.1544 107.025L50.1844 149.44L26.2144 107.025L18.7344 169.5H26.8094L31.1444 130.315Z"/>
<path d="M87.445 110V169.5H95.435V110H87.445Z"/>
<path d="M107.414 151.225L101.209 155.39C102.512 158.053 104.212 160.547 106.309 162.87C108.406 165.137 110.842 166.978 113.619 168.395C116.452 169.755 119.512 170.435 122.799 170.435C125.236 170.435 127.559 170.038 129.769 169.245C131.979 168.452 133.962 167.318 135.719 165.845C137.532 164.372 138.921 162.587 139.884 160.49C140.904 158.337 141.414 155.928 141.414 153.265C141.414 150.545 140.932 148.222 139.969 146.295C139.062 144.368 137.844 142.697 136.314 141.28C134.841 139.863 133.226 138.702 131.469 137.795C129.712 136.888 128.012 136.123 126.369 135.5C123.026 134.367 120.334 133.205 118.294 132.015C116.311 130.825 114.866 129.55 113.959 128.19C113.109 126.83 112.684 125.357 112.684 123.77C112.684 121.9 113.392 120.228 114.809 118.755C116.282 117.225 118.549 116.46 121.609 116.46C123.876 116.46 125.802 116.913 127.389 117.82C128.976 118.67 130.336 119.803 131.469 121.22C132.602 122.58 133.537 123.997 134.274 125.47L140.989 121.645C140.026 119.548 138.666 117.565 136.909 115.695C135.209 113.768 133.112 112.182 130.619 110.935C128.182 109.688 125.321 109.065 122.034 109.065C118.634 109.065 115.602 109.745 112.939 111.105C110.276 112.408 108.179 114.25 106.649 116.63C105.176 118.953 104.439 121.617 104.439 124.62C104.439 127.397 104.949 129.72 105.969 131.59C107.046 133.46 108.406 135.047 110.049 136.35C111.692 137.653 113.421 138.73 115.234 139.58C117.047 140.373 118.691 141.025 120.164 141.535C122.487 142.385 124.641 143.292 126.624 144.255C128.607 145.218 130.194 146.465 131.384 147.995C132.574 149.525 133.169 151.565 133.169 154.115C133.169 156.722 132.234 158.875 130.364 160.575C128.494 162.275 126.029 163.125 122.969 163.125C120.646 163.125 118.549 162.615 116.679 161.595C114.809 160.575 113.109 159.187 111.579 157.43C110.106 155.617 108.717 153.548 107.414 151.225Z"/>
<path d="M152.775 139.75C152.775 135.217 153.767 131.25 155.75 127.85C157.79 124.45 160.454 121.787 163.74 119.86C167.027 117.933 170.597 116.97 174.45 116.97C177.284 116.97 179.862 117.338 182.185 118.075C184.509 118.812 186.605 119.832 188.475 121.135C190.402 122.438 192.045 123.968 193.405 125.725V115.61C190.912 113.4 188.192 111.757 185.245 110.68C182.355 109.603 178.729 109.065 174.365 109.065C170.172 109.065 166.234 109.83 162.55 111.36C158.924 112.833 155.75 114.958 153.03 117.735C150.31 120.455 148.157 123.713 146.57 127.51C145.04 131.25 144.275 135.33 144.275 139.75C144.275 144.17 145.04 148.278 146.57 152.075C148.157 155.815 150.31 159.073 153.03 161.85C155.75 164.57 158.924 166.695 162.55 168.225C166.234 169.698 170.172 170.435 174.365 170.435C178.729 170.435 182.355 169.897 185.245 168.82C188.192 167.743 190.912 166.1 193.405 163.89V153.775C192.045 155.475 190.402 157.005 188.475 158.365C186.605 159.668 184.509 160.688 182.185 161.425C179.862 162.162 177.284 162.53 174.45 162.53C170.597 162.53 167.027 161.567 163.74 159.64C160.454 157.713 157.79 155.05 155.75 151.65C153.767 148.193 152.775 144.227 152.775 139.75Z"/>
<path d="M206.37 169.5H236.375V162.19H206.37V169.5ZM206.37 117.31H236.375V110H206.37V117.31ZM206.37 140.94H234.675V133.63H206.37V140.94ZM201.78 110V169.5H209.685V110H201.78Z"/>
<path d="M240.428 110V169.5H271.793V162.105H248.418V110H240.428Z"/>
<path d="M275.109 110V169.5H306.474V162.105H283.099V110H275.109Z"/>
<path d="M335.632 125.118L354.755 169.5H363.68L335.715 106.94L307.665 169.5H316.59L335.632 125.118Z"/>
<path d="M411.277 110V153.18L366.567 107.025V169.5H374.472V126.32L419.182 172.475V110H411.277Z"/>
<path d="M432.981 169.5H462.986V162.19H432.981V169.5ZM432.981 117.31H462.986V110H432.981V117.31ZM432.981 140.94H461.286V133.63H432.981V140.94ZM428.391 110V169.5H436.296V110H428.391Z"/>
<path d="M476.305 139.75C476.305 135.387 477.24 131.505 479.11 128.105C481.036 124.648 483.643 121.928 486.93 119.945C490.273 117.905 494.07 116.885 498.32 116.885C502.57 116.885 506.338 117.905 509.625 119.945C512.911 121.928 515.49 124.648 517.36 128.105C519.286 131.505 520.25 135.387 520.25 139.75C520.25 144.113 519.286 148.023 517.36 151.48C515.49 154.88 512.911 157.6 509.625 159.64C506.338 161.623 502.57 162.615 498.32 162.615C494.07 162.615 490.273 161.623 486.93 159.64C483.643 157.6 481.036 154.88 479.11 151.48C477.24 148.023 476.305 144.113 476.305 139.75ZM467.89 139.75C467.89 144.057 468.655 148.108 470.185 151.905C471.715 155.645 473.84 158.903 476.56 161.68C479.28 164.4 482.481 166.553 486.165 168.14C489.905 169.67 493.956 170.435 498.32 170.435C502.683 170.435 506.706 169.67 510.39 168.14C514.073 166.553 517.275 164.4 519.995 161.68C522.771 158.903 524.896 155.645 526.37 151.905C527.9 148.108 528.665 144.057 528.665 139.75C528.665 135.387 527.9 131.335 526.37 127.595C524.84 123.855 522.715 120.625 519.995 117.905C517.275 115.128 514.073 112.975 510.39 111.445C506.706 109.858 502.683 109.065 498.32 109.065C493.956 109.065 489.905 109.858 486.165 111.445C482.481 112.975 479.28 115.128 476.56 117.905C473.84 120.625 471.715 123.855 470.185 127.595C468.655 131.335 467.89 135.387 467.89 139.75Z"/>
<path d="M534.017 110V149.95C534.017 152.953 534.499 155.73 535.462 158.28C536.425 160.773 537.814 162.927 539.627 164.74C541.497 166.553 543.679 167.97 546.172 168.99C548.722 170.01 551.555 170.52 554.672 170.52C557.732 170.52 560.537 170.01 563.087 168.99C565.637 167.97 567.819 166.553 569.632 164.74C571.445 162.927 572.834 160.773 573.797 158.28C574.76 155.73 575.242 152.953 575.242 149.95V110H567.337V149.865C567.337 153.832 566.26 157.033 564.107 159.47C561.954 161.907 558.809 163.125 554.672 163.125C550.535 163.125 547.39 161.907 545.237 159.47C543.084 157.033 542.007 153.832 542.007 149.865V110H534.017Z"/>
<path d="M586.784 151.225L580.579 155.39C581.882 158.053 583.582 160.547 585.679 162.87C587.776 165.137 590.212 166.978 592.989 168.395C595.822 169.755 598.882 170.435 602.169 170.435C604.606 170.435 606.929 170.038 609.139 169.245C611.349 168.452 613.332 167.318 615.089 165.845C616.902 164.372 618.291 162.587 619.254 160.49C620.274 158.337 620.784 155.928 620.784 153.265C620.784 150.545 620.302 148.222 619.339 146.295C618.432 144.368 617.214 142.697 615.684 141.28C614.211 139.863 612.596 138.702 610.839 137.795C609.082 136.888 607.382 136.123 605.739 135.5C602.396 134.367 599.704 133.205 597.664 132.015C595.681 130.825 594.236 129.55 593.329 128.19C592.479 126.83 592.054 125.357 592.054 123.77C592.054 121.9 592.762 120.228 594.179 118.755C595.652 117.225 597.919 116.46 600.979 116.46C603.246 116.46 605.172 116.913 606.759 117.82C608.346 118.67 609.706 119.803 610.839 121.22C611.972 122.58 612.907 123.997 613.644 125.47L620.359 121.645C619.396 119.548 618.036 117.565 616.279 115.695C614.579 113.768 612.482 112.182 609.989 110.935C607.552 109.688 604.691 109.065 601.404 109.065C598.004 109.065 594.972 109.745 592.309 111.105C589.646 112.408 587.549 114.25 586.019 116.63C584.546 118.953 583.809 121.617 583.809 124.62C583.809 127.397 584.319 129.72 585.339 131.59C586.416 133.46 587.776 135.047 589.419 136.35C591.062 137.653 592.791 138.73 594.604 139.58C596.417 140.373 598.061 141.025 599.534 141.535C601.857 142.385 604.011 143.292 605.994 144.255C607.977 145.218 609.564 146.465 610.754 147.995C611.944 149.525 612.539 151.565 612.539 154.115C612.539 156.722 611.604 158.875 609.734 160.575C607.864 162.275 605.399 163.125 602.339 163.125C600.016 163.125 597.919 162.615 596.049 161.595C594.179 160.575 592.479 159.187 590.949 157.43C589.476 155.617 588.087 153.548 586.784 151.225Z"/>
</mask>
<path d="M31.1444 130.315L50.1844 163.975L69.2244 130.315L73.5594 169.5H81.6344L74.1544 107.025L50.1844 149.44L26.2144 107.025L18.7344 169.5H26.8094L31.1444 130.315Z" fill="black"/>
<path d="M87.445 110V169.5H95.435V110H87.445Z" fill="black"/>
<path d="M107.414 151.225L101.209 155.39C102.512 158.053 104.212 160.547 106.309 162.87C108.406 165.137 110.842 166.978 113.619 168.395C116.452 169.755 119.512 170.435 122.799 170.435C125.236 170.435 127.559 170.038 129.769 169.245C131.979 168.452 133.962 167.318 135.719 165.845C137.532 164.372 138.921 162.587 139.884 160.49C140.904 158.337 141.414 155.928 141.414 153.265C141.414 150.545 140.932 148.222 139.969 146.295C139.062 144.368 137.844 142.697 136.314 141.28C134.841 139.863 133.226 138.702 131.469 137.795C129.712 136.888 128.012 136.123 126.369 135.5C123.026 134.367 120.334 133.205 118.294 132.015C116.311 130.825 114.866 129.55 113.959 128.19C113.109 126.83 112.684 125.357 112.684 123.77C112.684 121.9 113.392 120.228 114.809 118.755C116.282 117.225 118.549 116.46 121.609 116.46C123.876 116.46 125.802 116.913 127.389 117.82C128.976 118.67 130.336 119.803 131.469 121.22C132.602 122.58 133.537 123.997 134.274 125.47L140.989 121.645C140.026 119.548 138.666 117.565 136.909 115.695C135.209 113.768 133.112 112.182 130.619 110.935C128.182 109.688 125.321 109.065 122.034 109.065C118.634 109.065 115.602 109.745 112.939 111.105C110.276 112.408 108.179 114.25 106.649 116.63C105.176 118.953 104.439 121.617 104.439 124.62C104.439 127.397 104.949 129.72 105.969 131.59C107.046 133.46 108.406 135.047 110.049 136.35C111.692 137.653 113.421 138.73 115.234 139.58C117.047 140.373 118.691 141.025 120.164 141.535C122.487 142.385 124.641 143.292 126.624 144.255C128.607 145.218 130.194 146.465 131.384 147.995C132.574 149.525 133.169 151.565 133.169 154.115C133.169 156.722 132.234 158.875 130.364 160.575C128.494 162.275 126.029 163.125 122.969 163.125C120.646 163.125 118.549 162.615 116.679 161.595C114.809 160.575 113.109 159.187 111.579 157.43C110.106 155.617 108.717 153.548 107.414 151.225Z" fill="black"/>
<path d="M152.775 139.75C152.775 135.217 153.767 131.25 155.75 127.85C157.79 124.45 160.454 121.787 163.74 119.86C167.027 117.933 170.597 116.97 174.45 116.97C177.284 116.97 179.862 117.338 182.185 118.075C184.509 118.812 186.605 119.832 188.475 121.135C190.402 122.438 192.045 123.968 193.405 125.725V115.61C190.912 113.4 188.192 111.757 185.245 110.68C182.355 109.603 178.729 109.065 174.365 109.065C170.172 109.065 166.234 109.83 162.55 111.36C158.924 112.833 155.75 114.958 153.03 117.735C150.31 120.455 148.157 123.713 146.57 127.51C145.04 131.25 144.275 135.33 144.275 139.75C144.275 144.17 145.04 148.278 146.57 152.075C148.157 155.815 150.31 159.073 153.03 161.85C155.75 164.57 158.924 166.695 162.55 168.225C166.234 169.698 170.172 170.435 174.365 170.435C178.729 170.435 182.355 169.897 185.245 168.82C188.192 167.743 190.912 166.1 193.405 163.89V153.775C192.045 155.475 190.402 157.005 188.475 158.365C186.605 159.668 184.509 160.688 182.185 161.425C179.862 162.162 177.284 162.53 174.45 162.53C170.597 162.53 167.027 161.567 163.74 159.64C160.454 157.713 157.79 155.05 155.75 151.65C153.767 148.193 152.775 144.227 152.775 139.75Z" fill="black"/>
<path d="M206.37 169.5H236.375V162.19H206.37V169.5ZM206.37 117.31H236.375V110H206.37V117.31ZM206.37 140.94H234.675V133.63H206.37V140.94ZM201.78 110V169.5H209.685V110H201.78Z" fill="black"/>
<path d="M240.428 110V169.5H271.793V162.105H248.418V110H240.428Z" fill="black"/>
<path d="M275.109 110V169.5H306.474V162.105H283.099V110H275.109Z" fill="black"/>
<path d="M335.632 125.118L354.755 169.5H363.68L335.715 106.94L307.665 169.5H316.59L335.632 125.118Z" fill="black"/>
<path d="M411.277 110V153.18L366.567 107.025V169.5H374.472V126.32L419.182 172.475V110H411.277Z" fill="black"/>
<path d="M432.981 169.5H462.986V162.19H432.981V169.5ZM432.981 117.31H462.986V110H432.981V117.31ZM432.981 140.94H461.286V133.63H432.981V140.94ZM428.391 110V169.5H436.296V110H428.391Z" fill="black"/>
<path d="M476.305 139.75C476.305 135.387 477.24 131.505 479.11 128.105C481.036 124.648 483.643 121.928 486.93 119.945C490.273 117.905 494.07 116.885 498.32 116.885C502.57 116.885 506.338 117.905 509.625 119.945C512.911 121.928 515.49 124.648 517.36 128.105C519.286 131.505 520.25 135.387 520.25 139.75C520.25 144.113 519.286 148.023 517.36 151.48C515.49 154.88 512.911 157.6 509.625 159.64C506.338 161.623 502.57 162.615 498.32 162.615C494.07 162.615 490.273 161.623 486.93 159.64C483.643 157.6 481.036 154.88 479.11 151.48C477.24 148.023 476.305 144.113 476.305 139.75ZM467.89 139.75C467.89 144.057 468.655 148.108 470.185 151.905C471.715 155.645 473.84 158.903 476.56 161.68C479.28 164.4 482.481 166.553 486.165 168.14C489.905 169.67 493.956 170.435 498.32 170.435C502.683 170.435 506.706 169.67 510.39 168.14C514.073 166.553 517.275 164.4 519.995 161.68C522.771 158.903 524.896 155.645 526.37 151.905C527.9 148.108 528.665 144.057 528.665 139.75C528.665 135.387 527.9 131.335 526.37 127.595C524.84 123.855 522.715 120.625 519.995 117.905C517.275 115.128 514.073 112.975 510.39 111.445C506.706 109.858 502.683 109.065 498.32 109.065C493.956 109.065 489.905 109.858 486.165 111.445C482.481 112.975 479.28 115.128 476.56 117.905C473.84 120.625 471.715 123.855 470.185 127.595C468.655 131.335 467.89 135.387 467.89 139.75Z" fill="black"/>
<path d="M534.017 110V149.95C534.017 152.953 534.499 155.73 535.462 158.28C536.425 160.773 537.814 162.927 539.627 164.74C541.497 166.553 543.679 167.97 546.172 168.99C548.722 170.01 551.555 170.52 554.672 170.52C557.732 170.52 560.537 170.01 563.087 168.99C565.637 167.97 567.819 166.553 569.632 164.74C571.445 162.927 572.834 160.773 573.797 158.28C574.76 155.73 575.242 152.953 575.242 149.95V110H567.337V149.865C567.337 153.832 566.26 157.033 564.107 159.47C561.954 161.907 558.809 163.125 554.672 163.125C550.535 163.125 547.39 161.907 545.237 159.47C543.084 157.033 542.007 153.832 542.007 149.865V110H534.017Z" fill="black"/>
<path d="M586.784 151.225L580.579 155.39C581.882 158.053 583.582 160.547 585.679 162.87C587.776 165.137 590.212 166.978 592.989 168.395C595.822 169.755 598.882 170.435 602.169 170.435C604.606 170.435 606.929 170.038 609.139 169.245C611.349 168.452 613.332 167.318 615.089 165.845C616.902 164.372 618.291 162.587 619.254 160.49C620.274 158.337 620.784 155.928 620.784 153.265C620.784 150.545 620.302 148.222 619.339 146.295C618.432 144.368 617.214 142.697 615.684 141.28C614.211 139.863 612.596 138.702 610.839 137.795C609.082 136.888 607.382 136.123 605.739 135.5C602.396 134.367 599.704 133.205 597.664 132.015C595.681 130.825 594.236 129.55 593.329 128.19C592.479 126.83 592.054 125.357 592.054 123.77C592.054 121.9 592.762 120.228 594.179 118.755C595.652 117.225 597.919 116.46 600.979 116.46C603.246 116.46 605.172 116.913 606.759 117.82C608.346 118.67 609.706 119.803 610.839 121.22C611.972 122.58 612.907 123.997 613.644 125.47L620.359 121.645C619.396 119.548 618.036 117.565 616.279 115.695C614.579 113.768 612.482 112.182 609.989 110.935C607.552 109.688 604.691 109.065 601.404 109.065C598.004 109.065 594.972 109.745 592.309 111.105C589.646 112.408 587.549 114.25 586.019 116.63C584.546 118.953 583.809 121.617 583.809 124.62C583.809 127.397 584.319 129.72 585.339 131.59C586.416 133.46 587.776 135.047 589.419 136.35C591.062 137.653 592.791 138.73 594.604 139.58C596.417 140.373 598.061 141.025 599.534 141.535C601.857 142.385 604.011 143.292 605.994 144.255C607.977 145.218 609.564 146.465 610.754 147.995C611.944 149.525 612.539 151.565 612.539 154.115C612.539 156.722 611.604 158.875 609.734 160.575C607.864 162.275 605.399 163.125 602.339 163.125C600.016 163.125 597.919 162.615 596.049 161.595C594.179 160.575 592.479 159.187 590.949 157.43C589.476 155.617 588.087 153.548 586.784 151.225Z" fill="black"/>
<path d="M31.1444 130.315L50.1844 163.975L69.2244 130.315L73.5594 169.5H81.6344L74.1544 107.025L50.1844 149.44L26.2144 107.025L18.7344 169.5H26.8094L31.1444 130.315Z" stroke="white" stroke-width="10" stroke-linejoin="round" mask="url(#path-1-outside-1_3_43)"/>
<path d="M87.445 110V169.5H95.435V110H87.445Z" stroke="white" stroke-width="10" stroke-linejoin="round" mask="url(#path-1-outside-1_3_43)"/>
<path d="M107.414 151.225L101.209 155.39C102.512 158.053 104.212 160.547 106.309 162.87C108.406 165.137 110.842 166.978 113.619 168.395C116.452 169.755 119.512 170.435 122.799 170.435C125.236 170.435 127.559 170.038 129.769 169.245C131.979 168.452 133.962 167.318 135.719 165.845C137.532 164.372 138.921 162.587 139.884 160.49C140.904 158.337 141.414 155.928 141.414 153.265C141.414 150.545 140.932 148.222 139.969 146.295C139.062 144.368 137.844 142.697 136.314 141.28C134.841 139.863 133.226 138.702 131.469 137.795C129.712 136.888 128.012 136.123 126.369 135.5C123.026 134.367 120.334 133.205 118.294 132.015C116.311 130.825 114.866 129.55 113.959 128.19C113.109 126.83 112.684 125.357 112.684 123.77C112.684 121.9 113.392 120.228 114.809 118.755C116.282 117.225 118.549 116.46 121.609 116.46C123.876 116.46 125.802 116.913 127.389 117.82C128.976 118.67 130.336 119.803 131.469 121.22C132.602 122.58 133.537 123.997 134.274 125.47L140.989 121.645C140.026 119.548 138.666 117.565 136.909 115.695C135.209 113.768 133.112 112.182 130.619 110.935C128.182 109.688 125.321 109.065 122.034 109.065C118.634 109.065 115.602 109.745 112.939 111.105C110.276 112.408 108.179 114.25 106.649 116.63C105.176 118.953 104.439 121.617 104.439 124.62C104.439 127.397 104.949 129.72 105.969 131.59C107.046 133.46 108.406 135.047 110.049 136.35C111.692 137.653 113.421 138.73 115.234 139.58C117.047 140.373 118.691 141.025 120.164 141.535C122.487 142.385 124.641 143.292 126.624 144.255C128.607 145.218 130.194 146.465 131.384 147.995C132.574 149.525 133.169 151.565 133.169 154.115C133.169 156.722 132.234 158.875 130.364 160.575C128.494 162.275 126.029 163.125 122.969 163.125C120.646 163.125 118.549 162.615 116.679 161.595C114.809 160.575 113.109 159.187 111.579 157.43C110.106 155.617 108.717 153.548 107.414 151.225Z" stroke="white" stroke-width="10" stroke-linejoin="round" mask="url(#path-1-outside-1_3_43)"/>
<path d="M152.775 139.75C152.775 135.217 153.767 131.25 155.75 127.85C157.79 124.45 160.454 121.787 163.74 119.86C167.027 117.933 170.597 116.97 174.45 116.97C177.284 116.97 179.862 117.338 182.185 118.075C184.509 118.812 186.605 119.832 188.475 121.135C190.402 122.438 192.045 123.968 193.405 125.725V115.61C190.912 113.4 188.192 111.757 185.245 110.68C182.355 109.603 178.729 109.065 174.365 109.065C170.172 109.065 166.234 109.83 162.55 111.36C158.924 112.833 155.75 114.958 153.03 117.735C150.31 120.455 148.157 123.713 146.57 127.51C145.04 131.25 144.275 135.33 144.275 139.75C144.275 144.17 145.04 148.278 146.57 152.075C148.157 155.815 150.31 159.073 153.03 161.85C155.75 164.57 158.924 166.695 162.55 168.225C166.234 169.698 170.172 170.435 174.365 170.435C178.729 170.435 182.355 169.897 185.245 168.82C188.192 167.743 190.912 166.1 193.405 163.89V153.775C192.045 155.475 190.402 157.005 188.475 158.365C186.605 159.668 184.509 160.688 182.185 161.425C179.862 162.162 177.284 162.53 174.45 162.53C170.597 162.53 167.027 161.567 163.74 159.64C160.454 157.713 157.79 155.05 155.75 151.65C153.767 148.193 152.775 144.227 152.775 139.75Z" stroke="white" stroke-width="10" stroke-linejoin="round" mask="url(#path-1-outside-1_3_43)"/>
<path d="M206.37 169.5H236.375V162.19H206.37V169.5ZM206.37 117.31H236.375V110H206.37V117.31ZM206.37 140.94H234.675V133.63H206.37V140.94ZM201.78 110V169.5H209.685V110H201.78Z" stroke="white" stroke-width="10" stroke-linejoin="round" mask="url(#path-1-outside-1_3_43)"/>
<path d="M240.428 110V169.5H271.793V162.105H248.418V110H240.428Z" stroke="white" stroke-width="10" stroke-linejoin="round" mask="url(#path-1-outside-1_3_43)"/>
<path d="M275.109 110V169.5H306.474V162.105H283.099V110H275.109Z" stroke="white" stroke-width="10" stroke-linejoin="round" mask="url(#path-1-outside-1_3_43)"/>
<path d="M335.632 125.118L354.755 169.5H363.68L335.715 106.94L307.665 169.5H316.59L335.632 125.118Z" stroke="white" stroke-width="10" stroke-linejoin="round" mask="url(#path-1-outside-1_3_43)"/>
<path d="M411.277 110V153.18L366.567 107.025V169.5H374.472V126.32L419.182 172.475V110H411.277Z" stroke="white" stroke-width="10" stroke-linejoin="round" mask="url(#path-1-outside-1_3_43)"/>
<path d="M432.981 169.5H462.986V162.19H432.981V169.5ZM432.981 117.31H462.986V110H432.981V117.31ZM432.981 140.94H461.286V133.63H432.981V140.94ZM428.391 110V169.5H436.296V110H428.391Z" stroke="white" stroke-width="10" stroke-linejoin="round" mask="url(#path-1-outside-1_3_43)"/>
<path d="M476.305 139.75C476.305 135.387 477.24 131.505 479.11 128.105C481.036 124.648 483.643 121.928 486.93 119.945C490.273 117.905 494.07 116.885 498.32 116.885C502.57 116.885 506.338 117.905 509.625 119.945C512.911 121.928 515.49 124.648 517.36 128.105C519.286 131.505 520.25 135.387 520.25 139.75C520.25 144.113 519.286 148.023 517.36 151.48C515.49 154.88 512.911 157.6 509.625 159.64C506.338 161.623 502.57 162.615 498.32 162.615C494.07 162.615 490.273 161.623 486.93 159.64C483.643 157.6 481.036 154.88 479.11 151.48C477.24 148.023 476.305 144.113 476.305 139.75ZM467.89 139.75C467.89 144.057 468.655 148.108 470.185 151.905C471.715 155.645 473.84 158.903 476.56 161.68C479.28 164.4 482.481 166.553 486.165 168.14C489.905 169.67 493.956 170.435 498.32 170.435C502.683 170.435 506.706 169.67 510.39 168.14C514.073 166.553 517.275 164.4 519.995 161.68C522.771 158.903 524.896 155.645 526.37 151.905C527.9 148.108 528.665 144.057 528.665 139.75C528.665 135.387 527.9 131.335 526.37 127.595C524.84 123.855 522.715 120.625 519.995 117.905C517.275 115.128 514.073 112.975 510.39 111.445C506.706 109.858 502.683 109.065 498.32 109.065C493.956 109.065 489.905 109.858 486.165 111.445C482.481 112.975 479.28 115.128 476.56 117.905C473.84 120.625 471.715 123.855 470.185 127.595C468.655 131.335 467.89 135.387 467.89 139.75Z" stroke="white" stroke-width="10" stroke-linejoin="round" mask="url(#path-1-outside-1_3_43)"/>
<path d="M534.017 110V149.95C534.017 152.953 534.499 155.73 535.462 158.28C536.425 160.773 537.814 162.927 539.627 164.74C541.497 166.553 543.679 167.97 546.172 168.99C548.722 170.01 551.555 170.52 554.672 170.52C557.732 170.52 560.537 170.01 563.087 168.99C565.637 167.97 567.819 166.553 569.632 164.74C571.445 162.927 572.834 160.773 573.797 158.28C574.76 155.73 575.242 152.953 575.242 149.95V110H567.337V149.865C567.337 153.832 566.26 157.033 564.107 159.47C561.954 161.907 558.809 163.125 554.672 163.125C550.535 163.125 547.39 161.907 545.237 159.47C543.084 157.033 542.007 153.832 542.007 149.865V110H534.017Z" stroke="white" stroke-width="10" stroke-linejoin="round" mask="url(#path-1-outside-1_3_43)"/>
<path d="M586.784 151.225L580.579 155.39C581.882 158.053 583.582 160.547 585.679 162.87C587.776 165.137 590.212 166.978 592.989 168.395C595.822 169.755 598.882 170.435 602.169 170.435C604.606 170.435 606.929 170.038 609.139 169.245C611.349 168.452 613.332 167.318 615.089 165.845C616.902 164.372 618.291 162.587 619.254 160.49C620.274 158.337 620.784 155.928 620.784 153.265C620.784 150.545 620.302 148.222 619.339 146.295C618.432 144.368 617.214 142.697 615.684 141.28C614.211 139.863 612.596 138.702 610.839 137.795C609.082 136.888 607.382 136.123 605.739 135.5C602.396 134.367 599.704 133.205 597.664 132.015C595.681 130.825 594.236 129.55 593.329 128.19C592.479 126.83 592.054 125.357 592.054 123.77C592.054 121.9 592.762 120.228 594.179 118.755C595.652 117.225 597.919 116.46 600.979 116.46C603.246 116.46 605.172 116.913 606.759 117.82C608.346 118.67 609.706 119.803 610.839 121.22C611.972 122.58 612.907 123.997 613.644 125.47L620.359 121.645C619.396 119.548 618.036 117.565 616.279 115.695C614.579 113.768 612.482 112.182 609.989 110.935C607.552 109.688 604.691 109.065 601.404 109.065C598.004 109.065 594.972 109.745 592.309 111.105C589.646 112.408 587.549 114.25 586.019 116.63C584.546 118.953 583.809 121.617 583.809 124.62C583.809 127.397 584.319 129.72 585.339 131.59C586.416 133.46 587.776 135.047 589.419 136.35C591.062 137.653 592.791 138.73 594.604 139.58C596.417 140.373 598.061 141.025 599.534 141.535C601.857 142.385 604.011 143.292 605.994 144.255C607.977 145.218 609.564 146.465 610.754 147.995C611.944 149.525 612.539 151.565 612.539 154.115C612.539 156.722 611.604 158.875 609.734 160.575C607.864 162.275 605.399 163.125 602.339 163.125C600.016 163.125 597.919 162.615 596.049 161.595C594.179 160.575 592.479 159.187 590.949 157.43C589.476 155.617 588.087 153.548 586.784 151.225Z" stroke="white" stroke-width="10" stroke-linejoin="round" mask="url(#path-1-outside-1_3_43)"/>
</svg>
