<?xml version="1.0" encoding="UTF-8"?>
<svg width="1024px" height="1024px" viewBox="0 0 1024 1024" version="1.1" xmlns="http://www.w3.org/2000/svg" xmlns:xlink="http://www.w3.org/1999/xlink">
    <title>Square-primary</title>
    <defs>
        <path d="M366.7664,438.8085 L366.7048,219.40425 C366.7048,179.03925 350.260533,142.47675 323.710933,116.0055 C297.161333,89.53425 260.4976,73.125 220.023467,73.125 C179.5464,73.125 142.882667,89.53425 116.333067,116.0055 C89.7834667,142.47675 73.3392,179.03925 73.3392,219.40425 C73.3392,259.76925 89.7834667,296.33175 116.333067,322.803 C142.882667,349.27425 179.5464,365.65425 220.023467,365.65425 L220.085067,365.65425 C260.591467,365.65425 293.4272,398.41425 293.4272,438.8085 L220.023467,438.8085 C98.5893333,438.8085 4.16851738e-13,340.49925 4.16851738e-13,219.40425 C4.16851738e-13,98.30925 98.5893333,0 220.023467,0 C341.4576,0 440.044,98.30925 440.044,219.40425 L440.044,438.8085 L366.7664,438.8085 Z" id="path-1"></path>
    </defs>
    <g id="Square-primary" stroke="none" stroke-width="1" fill="none" fill-rule="evenodd">
        <rect fill="#083D77" x="0" y="0" width="1024" height="1024"></rect>
        <g id="Logogram" transform="translate(292.000000, 220.000000)">
            <polygon id="Fill-9" fill="#38D1C4" points="-5.83592434e-13 584.992395 440 584.992395 440 511.867395 -5.83592434e-13 511.867395"></polygon>
            <mask id="mask-2" fill="white">
                <use xlink:href="#path-1"></use>
            </mask>
            <use id="Mask" fill="#FFFFFF" xlink:href="#path-1"></use>
        </g>
    </g>
</svg>