<svg width="640" height="280" viewBox="0 0 640 280" fill="none" xmlns="http://www.w3.org/2000/svg">
<mask id="path-1-outside-1_3_45" maskUnits="userSpaceOnUse" x="87.5468" y="69.3414" width="465" height="132" fill="black">
<rect fill="white" x="87.5468" y="69.3414" width="465" height="132"/>
<path fill-rule="evenodd" clip-rule="evenodd" d="M105.102 74.3414H99.8368H92.5468V181.647L105.102 168.841V123.751H129.358L140.742 112.141H105.102V86.0864H141.173L152.968 74.3414H105.102ZM141.229 137.791C141.229 144.001 142.624 149.581 145.414 154.531C148.294 159.391 152.164 163.216 157.024 166.006C161.974 168.796 167.509 170.191 173.629 170.191C179.839 170.191 185.374 168.796 190.234 166.006C195.094 163.216 198.964 159.391 201.844 154.531C204.724 149.581 206.164 144.001 206.164 137.791C206.164 131.491 204.724 125.911 201.844 121.051C198.964 116.191 195.094 112.366 190.234 109.576C185.374 106.786 179.839 105.391 173.629 105.391C167.509 105.391 161.974 106.786 157.024 109.576C152.164 112.366 148.294 116.191 145.414 121.051C142.624 125.911 141.229 131.491 141.229 137.791ZM210.133 106.741H221.878V114.046C223.252 111.958 224.827 110.198 226.603 108.766C229.483 106.516 232.363 105.391 235.243 105.391C237.493 105.391 239.563 105.706 241.453 106.336C243.433 106.966 245.233 108.091 246.853 109.711L240.643 119.566C239.203 118.486 237.898 117.721 236.728 117.271C235.558 116.731 234.073 116.461 232.273 116.461C229.663 116.461 227.593 117.136 226.063 118.486C224.533 119.746 223.453 121.546 222.823 123.886C222.193 126.136 221.878 128.746 221.878 131.716V160.841L210.133 173.531V106.741ZM282.957 179.661C278.817 179.661 275.307 178.761 272.427 176.961C269.547 175.161 267.342 172.596 265.812 169.266C264.74 166.786 264.067 163.906 263.793 160.626H312.522V159.276C312.612 158.556 312.657 157.881 312.657 157.251C312.657 150.681 311.442 145.011 309.012 140.241C306.672 135.471 303.297 131.826 298.887 129.306C294.477 126.696 289.167 125.391 282.957 125.391C281.712 125.391 280.496 125.446 279.309 125.554L252.294 150.902C251.946 153.087 251.772 155.383 251.772 157.791C251.772 164.181 253.032 169.806 255.552 174.666C258.072 179.526 261.582 183.351 266.082 186.141C268.349 187.501 270.799 188.519 273.431 189.194L282.957 179.661ZM299.832 157.791V157.263C299.889 157.465 299.906 157.645 299.832 157.791ZM357.813 182.841V151.041C357.813 146.091 356.733 142.356 354.573 139.836C352.413 137.226 349.218 135.921 344.988 135.921C341.928 135.921 339.228 136.551 336.888 137.811C334.638 139.071 332.883 140.871 331.623 143.211C330.363 145.461 329.733 148.071 329.733 151.041V183.841L317.853 195.709V138.512L329.733 126.741V136.461C331.713 132.681 334.233 129.891 337.293 128.091C340.443 126.291 344.088 125.391 348.228 125.391C354.888 125.391 360.108 127.551 363.888 131.871C366.546 134.838 368.291 138.548 369.123 143H377.456C377.435 142.627 377.425 142.248 377.425 141.861C377.425 138.171 378.37 135.111 380.26 132.681C382.24 130.161 384.805 128.316 387.955 127.146C391.105 125.976 394.39 125.391 397.81 125.391C401.23 125.391 404.38 125.931 407.26 127.011C410.23 128.001 412.84 129.396 415.09 131.196C416.905 132.523 418.576 134.17 419.796 135.875L412.731 143H427.537V133.741L439.282 122.04V143H448.986C449.314 142.338 449.667 141.689 450.044 141.051C452.924 136.191 456.794 132.366 461.654 129.576C466.604 126.786 472.139 125.391 478.259 125.391C482.489 125.391 486.584 126.066 490.544 127.416C494.504 128.766 497.564 130.656 499.724 133.086L492.709 140.083C491.171 139.127 489.459 138.324 487.574 137.676C484.694 136.686 481.634 136.191 478.394 136.191C474.434 136.191 470.879 137.091 467.729 138.891C465.877 139.981 464.256 141.35 462.866 143H503.609C503.589 142.627 503.578 142.248 503.578 141.861C503.578 138.171 504.523 135.111 506.413 132.681C508.393 130.161 510.958 128.316 514.108 127.146C517.258 125.976 520.543 125.391 523.963 125.391C527.383 125.391 530.533 125.931 533.413 127.011C536.383 128.001 538.993 129.396 541.243 131.196C543.059 132.523 544.73 134.17 545.949 135.875L538.273 143.616C536.473 141.186 534.268 139.206 531.658 137.676C529.048 136.146 526.123 135.381 522.883 135.381C520.723 135.381 518.833 135.876 517.213 136.866C515.683 137.856 514.918 139.341 514.918 141.321C514.918 141.9 515.008 142.46 515.189 143H537V155.878C537.247 156.02 537.491 156.163 537.733 156.306C540.703 157.926 543.043 159.906 544.753 162.246C546.553 164.586 547.453 167.601 547.453 171.291C547.453 176.781 545.473 181.326 541.513 184.926C537.643 188.526 532.423 190.326 525.853 190.326C521.713 190.326 517.933 189.606 514.513 188.166C511.183 186.726 508.303 184.881 505.873 182.631C503.997 180.755 502.439 178.85 501.2 176.917L506.2 172H462.44C463.922 173.865 465.685 175.429 467.729 176.691C470.879 178.491 474.434 179.391 478.394 179.391C481.634 179.391 484.694 178.896 487.574 177.906C490.454 176.916 492.929 175.566 494.999 173.856C495.201 173.697 495.397 173.536 495.588 173.374L478.775 190.188C478.603 190.19 478.431 190.191 478.259 190.191C472.139 190.191 466.604 188.796 461.654 186.006C456.794 183.216 452.924 179.391 450.044 174.531C449.563 173.705 449.123 172.861 448.722 172H439.282V184.219L427.537 195.841V172H421.289C421.124 177.174 419.148 181.482 415.36 184.926C411.49 188.526 406.27 190.326 399.7 190.326C395.56 190.326 391.78 189.606 388.36 188.166C385.03 186.726 382.15 184.881 379.72 182.631C377.844 180.755 376.286 178.85 375.046 176.917L380.047 172H368.613L357.813 182.841ZM384.746 172C385.596 172.987 386.485 173.921 387.415 174.801C389.125 176.421 391.015 177.681 393.085 178.581C395.245 179.481 397.54 179.931 399.97 179.931C402.94 179.931 405.235 179.256 406.855 177.906C408.565 176.556 409.42 174.711 409.42 172.371C409.42 172.246 409.417 172.123 409.412 172H384.746ZM389.035 143H411.647C409.938 140.849 407.89 139.075 405.505 137.676C402.895 136.146 399.97 135.381 396.73 135.381C394.57 135.381 392.68 135.876 391.06 136.866C389.53 137.856 388.765 139.341 388.765 141.321C388.765 141.9 388.855 142.46 389.035 143ZM510.899 172C511.749 172.987 512.639 173.921 513.568 174.801C515.278 176.421 517.168 177.681 519.238 178.581C521.398 179.481 523.693 179.931 526.123 179.931C529.093 179.931 531.388 179.256 533.008 177.906C534.718 176.556 535.573 174.711 535.573 172.371C535.573 172.246 535.571 172.123 535.566 172H510.899Z"/>
</mask>
<path fill-rule="evenodd" clip-rule="evenodd" d="M105.102 74.3414H99.8368H92.5468V181.647L105.102 168.841V123.751H129.358L140.742 112.141H105.102V86.0864H141.173L152.968 74.3414H105.102ZM141.229 137.791C141.229 144.001 142.624 149.581 145.414 154.531C148.294 159.391 152.164 163.216 157.024 166.006C161.974 168.796 167.509 170.191 173.629 170.191C179.839 170.191 185.374 168.796 190.234 166.006C195.094 163.216 198.964 159.391 201.844 154.531C204.724 149.581 206.164 144.001 206.164 137.791C206.164 131.491 204.724 125.911 201.844 121.051C198.964 116.191 195.094 112.366 190.234 109.576C185.374 106.786 179.839 105.391 173.629 105.391C167.509 105.391 161.974 106.786 157.024 109.576C152.164 112.366 148.294 116.191 145.414 121.051C142.624 125.911 141.229 131.491 141.229 137.791ZM210.133 106.741H221.878V114.046C223.252 111.958 224.827 110.198 226.603 108.766C229.483 106.516 232.363 105.391 235.243 105.391C237.493 105.391 239.563 105.706 241.453 106.336C243.433 106.966 245.233 108.091 246.853 109.711L240.643 119.566C239.203 118.486 237.898 117.721 236.728 117.271C235.558 116.731 234.073 116.461 232.273 116.461C229.663 116.461 227.593 117.136 226.063 118.486C224.533 119.746 223.453 121.546 222.823 123.886C222.193 126.136 221.878 128.746 221.878 131.716V160.841L210.133 173.531V106.741ZM282.957 179.661C278.817 179.661 275.307 178.761 272.427 176.961C269.547 175.161 267.342 172.596 265.812 169.266C264.74 166.786 264.067 163.906 263.793 160.626H312.522V159.276C312.612 158.556 312.657 157.881 312.657 157.251C312.657 150.681 311.442 145.011 309.012 140.241C306.672 135.471 303.297 131.826 298.887 129.306C294.477 126.696 289.167 125.391 282.957 125.391C281.712 125.391 280.496 125.446 279.309 125.554L252.294 150.902C251.946 153.087 251.772 155.383 251.772 157.791C251.772 164.181 253.032 169.806 255.552 174.666C258.072 179.526 261.582 183.351 266.082 186.141C268.349 187.501 270.799 188.519 273.431 189.194L282.957 179.661ZM299.832 157.791V157.263C299.889 157.465 299.906 157.645 299.832 157.791ZM357.813 182.841V151.041C357.813 146.091 356.733 142.356 354.573 139.836C352.413 137.226 349.218 135.921 344.988 135.921C341.928 135.921 339.228 136.551 336.888 137.811C334.638 139.071 332.883 140.871 331.623 143.211C330.363 145.461 329.733 148.071 329.733 151.041V183.841L317.853 195.709V138.512L329.733 126.741V136.461C331.713 132.681 334.233 129.891 337.293 128.091C340.443 126.291 344.088 125.391 348.228 125.391C354.888 125.391 360.108 127.551 363.888 131.871C366.546 134.838 368.291 138.548 369.123 143H377.456C377.435 142.627 377.425 142.248 377.425 141.861C377.425 138.171 378.37 135.111 380.26 132.681C382.24 130.161 384.805 128.316 387.955 127.146C391.105 125.976 394.39 125.391 397.81 125.391C401.23 125.391 404.38 125.931 407.26 127.011C410.23 128.001 412.84 129.396 415.09 131.196C416.905 132.523 418.576 134.17 419.796 135.875L412.731 143H427.537V133.741L439.282 122.04V143H448.986C449.314 142.338 449.667 141.689 450.044 141.051C452.924 136.191 456.794 132.366 461.654 129.576C466.604 126.786 472.139 125.391 478.259 125.391C482.489 125.391 486.584 126.066 490.544 127.416C494.504 128.766 497.564 130.656 499.724 133.086L492.709 140.083C491.171 139.127 489.459 138.324 487.574 137.676C484.694 136.686 481.634 136.191 478.394 136.191C474.434 136.191 470.879 137.091 467.729 138.891C465.877 139.981 464.256 141.35 462.866 143H503.609C503.589 142.627 503.578 142.248 503.578 141.861C503.578 138.171 504.523 135.111 506.413 132.681C508.393 130.161 510.958 128.316 514.108 127.146C517.258 125.976 520.543 125.391 523.963 125.391C527.383 125.391 530.533 125.931 533.413 127.011C536.383 128.001 538.993 129.396 541.243 131.196C543.059 132.523 544.73 134.17 545.949 135.875L538.273 143.616C536.473 141.186 534.268 139.206 531.658 137.676C529.048 136.146 526.123 135.381 522.883 135.381C520.723 135.381 518.833 135.876 517.213 136.866C515.683 137.856 514.918 139.341 514.918 141.321C514.918 141.9 515.008 142.46 515.189 143H537V155.878C537.247 156.02 537.491 156.163 537.733 156.306C540.703 157.926 543.043 159.906 544.753 162.246C546.553 164.586 547.453 167.601 547.453 171.291C547.453 176.781 545.473 181.326 541.513 184.926C537.643 188.526 532.423 190.326 525.853 190.326C521.713 190.326 517.933 189.606 514.513 188.166C511.183 186.726 508.303 184.881 505.873 182.631C503.997 180.755 502.439 178.85 501.2 176.917L506.2 172H462.44C463.922 173.865 465.685 175.429 467.729 176.691C470.879 178.491 474.434 179.391 478.394 179.391C481.634 179.391 484.694 178.896 487.574 177.906C490.454 176.916 492.929 175.566 494.999 173.856C495.201 173.697 495.397 173.536 495.588 173.374L478.775 190.188C478.603 190.19 478.431 190.191 478.259 190.191C472.139 190.191 466.604 188.796 461.654 186.006C456.794 183.216 452.924 179.391 450.044 174.531C449.563 173.705 449.123 172.861 448.722 172H439.282V184.219L427.537 195.841V172H421.289C421.124 177.174 419.148 181.482 415.36 184.926C411.49 188.526 406.27 190.326 399.7 190.326C395.56 190.326 391.78 189.606 388.36 188.166C385.03 186.726 382.15 184.881 379.72 182.631C377.844 180.755 376.286 178.85 375.046 176.917L380.047 172H368.613L357.813 182.841ZM384.746 172C385.596 172.987 386.485 173.921 387.415 174.801C389.125 176.421 391.015 177.681 393.085 178.581C395.245 179.481 397.54 179.931 399.97 179.931C402.94 179.931 405.235 179.256 406.855 177.906C408.565 176.556 409.42 174.711 409.42 172.371C409.42 172.246 409.417 172.123 409.412 172H384.746ZM389.035 143H411.647C409.938 140.849 407.89 139.075 405.505 137.676C402.895 136.146 399.97 135.381 396.73 135.381C394.57 135.381 392.68 135.876 391.06 136.866C389.53 137.856 388.765 139.341 388.765 141.321C388.765 141.9 388.855 142.46 389.035 143ZM510.899 172C511.749 172.987 512.639 173.921 513.568 174.801C515.278 176.421 517.168 177.681 519.238 178.581C521.398 179.481 523.693 179.931 526.123 179.931C529.093 179.931 531.388 179.256 533.008 177.906C534.718 176.556 535.573 174.711 535.573 172.371C535.573 172.246 535.571 172.123 535.566 172H510.899Z" fill="white"/>
<path d="M92.5468 74.3414V69.3414C89.7853 69.3414 87.5468 71.5799 87.5468 74.3414H92.5468ZM92.5468 181.647H87.5468C87.5468 183.678 88.7757 185.507 90.6562 186.275C92.5366 187.043 94.6949 186.598 96.117 185.147L92.5468 181.647ZM105.102 168.841L108.672 172.342C109.588 171.407 110.102 170.15 110.102 168.841H105.102ZM105.102 123.751V118.751C102.34 118.751 100.102 120.99 100.102 123.751H105.102ZM129.358 123.751V128.751C130.701 128.751 131.988 128.211 132.928 127.252L129.358 123.751ZM140.742 112.141L144.312 115.642C145.722 114.204 146.131 112.061 145.352 110.205C144.572 108.349 142.755 107.141 140.742 107.141V112.141ZM105.102 112.141H100.102C100.102 114.903 102.34 117.141 105.102 117.141V112.141ZM105.102 86.0864V81.0864C102.34 81.0864 100.102 83.3249 100.102 86.0864H105.102ZM141.173 86.0864V91.0864C142.495 91.0864 143.764 90.5625 144.701 89.6295L141.173 86.0864ZM152.968 74.3414L156.496 77.8845C157.931 76.4562 158.363 74.3039 157.59 72.4329C156.817 70.5619 154.993 69.3414 152.968 69.3414V74.3414ZM145.414 154.531L141.058 156.986C141.076 157.018 141.094 157.049 141.113 157.08L145.414 154.531ZM157.024 166.006L154.535 170.343C154.546 170.349 154.558 170.356 154.569 170.362L157.024 166.006ZM201.844 154.531L206.145 157.08C206.152 157.069 206.159 157.057 206.166 157.046L201.844 154.531ZM157.024 109.576L154.569 105.221C154.558 105.227 154.546 105.234 154.535 105.24L157.024 109.576ZM145.414 121.051L141.113 118.502C141.101 118.522 141.089 118.542 141.078 118.562L145.414 121.051ZM221.878 106.741H226.878C226.878 103.98 224.639 101.741 221.878 101.741V106.741ZM210.133 106.741V101.741C207.371 101.741 205.133 103.98 205.133 106.741H210.133ZM221.878 114.046H216.878C216.878 116.255 218.327 118.202 220.443 118.835C222.558 119.469 224.839 118.64 226.054 116.795L221.878 114.046ZM226.603 108.766L223.524 104.826C223.504 104.842 223.484 104.858 223.464 104.874L226.603 108.766ZM241.453 106.336L239.872 111.08C239.893 111.087 239.915 111.094 239.937 111.101L241.453 106.336ZM246.853 109.711L251.083 112.377C252.328 110.401 252.039 107.827 250.388 106.176L246.853 109.711ZM240.643 119.566L237.643 123.566C238.76 124.404 240.177 124.737 241.55 124.483C242.923 124.23 244.128 123.414 244.873 122.232L240.643 119.566ZM236.728 117.271L234.632 121.811C234.731 121.857 234.831 121.899 234.933 121.938L236.728 117.271ZM226.063 118.486L229.241 122.346C229.285 122.31 229.328 122.273 229.371 122.236L226.063 118.486ZM222.823 123.886L227.637 125.235C227.642 125.218 227.646 125.202 227.651 125.186L222.823 123.886ZM221.878 160.841L225.547 164.238C226.403 163.313 226.878 162.101 226.878 160.841H221.878ZM210.133 173.531H205.133C205.133 175.589 206.393 177.436 208.309 178.187C210.225 178.937 212.405 178.438 213.802 176.928L210.133 173.531ZM282.957 179.661L286.494 183.196C287.923 181.765 288.351 179.615 287.576 177.747C286.802 175.879 284.979 174.661 282.957 174.661V179.661ZM265.812 169.266L261.223 171.251C261.238 171.285 261.253 171.32 261.269 171.354L265.812 169.266ZM263.793 160.626V155.626C262.395 155.626 261.06 156.212 260.113 157.241C259.167 158.27 258.694 159.649 258.81 161.042L263.793 160.626ZM312.522 160.626V165.626C315.284 165.626 317.522 163.388 317.522 160.626H312.522ZM312.522 159.276L307.561 158.656C307.535 158.862 307.522 159.069 307.522 159.276H312.522ZM309.012 140.241L304.523 142.443C304.534 142.466 304.546 142.489 304.557 142.511L309.012 140.241ZM298.887 129.306L296.341 133.609C296.363 133.622 296.385 133.635 296.407 133.648L298.887 129.306ZM279.309 125.554L278.854 120.575C277.744 120.676 276.7 121.146 275.888 121.908L279.309 125.554ZM252.294 150.902L248.873 147.256C248.065 148.015 247.531 149.021 247.357 150.115L252.294 150.902ZM266.082 186.141L263.448 190.391C263.468 190.404 263.489 190.416 263.51 190.429L266.082 186.141ZM273.431 189.194L272.189 194.037C273.901 194.476 275.718 193.979 276.968 192.728L273.431 189.194ZM299.832 157.791H294.832C294.832 160.11 296.427 162.125 298.684 162.658C300.941 163.19 303.268 162.101 304.305 160.027L299.832 157.791ZM299.832 157.263L304.644 155.903C303.965 153.501 301.618 151.968 299.146 152.311C296.673 152.653 294.832 154.767 294.832 157.263H299.832ZM357.813 182.841H352.813C352.813 184.865 354.033 186.69 355.904 187.463C357.774 188.235 359.926 187.804 361.355 186.37L357.813 182.841ZM354.573 139.836L350.721 143.024C350.739 143.046 350.758 143.068 350.777 143.09L354.573 139.836ZM336.888 137.811L334.517 133.409C334.493 133.422 334.469 133.435 334.445 133.449L336.888 137.811ZM331.623 143.211L335.985 145.654C335.999 145.63 336.012 145.606 336.025 145.582L331.623 143.211ZM329.733 183.841L333.266 187.379C334.205 186.441 334.733 185.168 334.733 183.841H329.733ZM317.853 195.709H312.853C312.853 197.731 314.07 199.554 315.938 200.328C317.806 201.102 319.956 200.675 321.386 199.246L317.853 195.709ZM317.853 138.512L314.334 134.96C313.386 135.899 312.853 137.178 312.853 138.512H317.853ZM329.733 126.741H334.733C334.733 124.723 333.52 122.903 331.657 122.126C329.794 121.35 327.647 121.769 326.214 123.189L329.733 126.741ZM329.733 136.461H324.733C324.733 138.763 326.304 140.767 328.538 141.317C330.773 141.866 333.094 140.82 334.162 138.781L329.733 136.461ZM337.293 128.091L334.812 123.75C334.794 123.761 334.776 123.771 334.758 123.782L337.293 128.091ZM363.888 131.871L360.125 135.164C360.138 135.179 360.151 135.193 360.164 135.208L363.888 131.871ZM369.123 143L364.208 143.919C364.651 146.285 366.716 148 369.123 148V143ZM377.456 143V148C378.83 148 380.144 147.434 381.088 146.436C382.033 145.438 382.524 144.095 382.448 142.723L377.456 143ZM380.26 132.681L376.328 129.592C376.323 129.599 376.318 129.605 376.313 129.612L380.26 132.681ZM387.955 127.146L389.696 131.833L387.955 127.146ZM407.26 127.011L405.504 131.693C405.562 131.715 405.62 131.735 405.679 131.755L407.26 127.011ZM415.09 131.196L411.966 135.101C412.023 135.146 412.081 135.19 412.14 135.233L415.09 131.196ZM419.796 135.875L423.346 139.396C425.062 137.666 425.28 134.95 423.863 132.968L419.796 135.875ZM412.731 143L409.181 139.479C407.759 140.913 407.339 143.06 408.116 144.923C408.892 146.786 410.712 148 412.731 148V143ZM427.537 143V148C430.298 148 432.537 145.761 432.537 143H427.537ZM427.537 133.741L424.008 130.199C423.066 131.138 422.537 132.412 422.537 133.741H427.537ZM439.282 122.04H444.282C444.282 120.019 443.066 118.197 441.2 117.422C439.334 116.647 437.185 117.071 435.753 118.498L439.282 122.04ZM439.282 143H434.282C434.282 145.761 436.521 148 439.282 148V143ZM448.986 143V148C450.886 148 452.622 146.923 453.466 145.221L448.986 143ZM450.044 141.051L454.346 143.6L454.346 143.6L450.044 141.051ZM461.654 129.576L459.199 125.221C459.188 125.227 459.176 125.234 459.165 125.24L461.654 129.576ZM490.544 127.416L488.931 132.149V132.149L490.544 127.416ZM499.724 133.086L503.255 136.627C505.131 134.755 505.222 131.745 503.461 129.765L499.724 133.086ZM492.709 140.083L490.069 144.329C492.04 145.555 494.596 145.263 496.24 143.623L492.709 140.083ZM487.574 137.676L489.2 132.948L487.574 137.676ZM467.729 138.891L465.248 134.55C465.23 134.561 465.212 134.571 465.194 134.582L467.729 138.891ZM462.866 143L459.042 139.778C457.789 141.265 457.512 143.344 458.332 145.108C459.152 146.872 460.921 148 462.866 148V143ZM503.609 143V148C504.984 148 506.297 147.434 507.242 146.436C508.186 145.438 508.678 144.095 508.602 142.723L503.609 143ZM506.413 132.681L502.482 129.592C502.477 129.599 502.471 129.605 502.466 129.612L506.413 132.681ZM514.108 127.146L515.849 131.833L514.108 127.146ZM533.413 127.011L531.658 131.693C531.715 131.715 531.774 131.735 531.832 131.755L533.413 127.011ZM541.243 131.196L538.12 135.101C538.177 135.146 538.234 135.19 538.293 135.233L541.243 131.196ZM545.949 135.875L549.5 139.396C551.216 137.666 551.434 134.95 550.017 132.968L545.949 135.875ZM538.273 143.616L534.255 146.592C535.123 147.764 536.46 148.499 537.914 148.603C539.369 148.708 540.797 148.173 541.824 147.137L538.273 143.616ZM531.658 137.676L534.187 133.363V133.363L531.658 137.676ZM517.213 136.866L514.606 132.6C514.569 132.622 514.533 132.645 514.497 132.669L517.213 136.866ZM515.189 143L510.446 144.583C511.127 146.624 513.037 148 515.189 148V143ZM537 143H542C542 140.239 539.761 138 537 138V143ZM537 155.878H532C532 157.669 532.958 159.324 534.512 160.215L537 155.878ZM537.733 156.306L535.18 160.606C535.233 160.637 535.286 160.667 535.339 160.696L537.733 156.306ZM544.753 162.246L540.716 165.196C540.74 165.23 540.765 165.262 540.79 165.295L544.753 162.246ZM541.513 184.926L538.15 181.227C538.136 181.24 538.122 181.252 538.108 181.265L541.513 184.926ZM514.513 188.166L512.529 192.756C512.543 192.762 512.558 192.768 512.573 192.775L514.513 188.166ZM505.873 182.631L502.338 186.167C502.383 186.212 502.429 186.257 502.476 186.3L505.873 182.631ZM501.2 176.917L497.694 173.351C496.007 175.01 495.714 177.623 496.99 179.615L501.2 176.917ZM506.2 172L509.706 175.565C511.153 174.142 511.597 171.985 510.828 170.106C510.059 168.227 508.23 167 506.2 167V172ZM462.44 172V167C460.521 167 458.771 168.098 457.937 169.827C457.103 171.555 457.332 173.608 458.525 175.11L462.44 172ZM467.729 176.691L465.102 180.945C465.15 180.975 465.199 181.004 465.248 181.033L467.729 176.691ZM494.999 173.856L491.896 169.936C491.868 169.958 491.842 169.979 491.815 170.002L494.999 173.856ZM495.588 173.374L499.124 176.91C501.019 175.015 501.083 171.962 499.268 169.989C497.453 168.016 494.405 167.826 492.359 169.557L495.588 173.374ZM478.775 190.188L478.84 195.188C480.143 195.171 481.388 194.645 482.31 193.724L478.775 190.188ZM461.654 186.006L459.165 190.343C459.176 190.349 459.188 190.356 459.199 190.362L461.654 186.006ZM450.044 174.531L445.722 177.046C445.729 177.057 445.736 177.069 445.743 177.08L450.044 174.531ZM448.722 172L453.256 169.892C452.436 168.128 450.668 167 448.722 167V172ZM439.282 172V167C436.521 167 434.282 169.239 434.282 172H439.282ZM439.282 184.219L442.799 187.773C443.748 186.834 444.282 185.554 444.282 184.219H439.282ZM427.537 195.841H422.537C422.537 197.859 423.75 199.679 425.612 200.456C427.474 201.233 429.62 200.814 431.054 199.395L427.537 195.841ZM427.537 172H432.537C432.537 169.239 430.298 167 427.537 167V172ZM421.289 172V167C418.589 167 416.377 169.143 416.291 171.841L421.289 172ZM415.36 184.926L411.996 181.227C411.982 181.24 411.968 181.252 411.954 181.265L415.36 184.926ZM388.36 188.166L386.375 192.756C386.39 192.762 386.405 192.768 386.419 192.775L388.36 188.166ZM379.72 182.631L376.184 186.167C376.229 186.212 376.276 186.257 376.323 186.3L379.72 182.631ZM375.046 176.917L371.541 173.351C369.854 175.01 369.56 177.623 370.837 179.615L375.046 176.917ZM380.047 172L383.552 175.565C385 174.142 385.443 171.985 384.674 170.106C383.905 168.227 382.077 167 380.047 167V172ZM368.613 172V167C367.284 167 366.01 167.529 365.071 168.471L368.613 172ZM384.746 172V167C382.791 167 381.016 168.139 380.201 169.916C379.386 171.692 379.681 173.781 380.957 175.262L384.746 172ZM387.415 174.801L383.976 178.431L383.976 178.431L387.415 174.801ZM393.085 178.581L391.091 183.167C391.115 183.177 391.138 183.187 391.162 183.197L393.085 178.581ZM406.855 177.906L403.756 173.982C403.722 174.009 403.688 174.037 403.654 174.065L406.855 177.906ZM409.412 172L414.408 171.8C414.301 169.118 412.096 167 409.412 167V172ZM389.035 143L384.293 144.583C384.974 146.624 386.884 148 389.035 148V143ZM411.647 143V148C413.566 148 415.316 146.902 416.15 145.173C416.984 143.445 416.755 141.392 415.561 139.889L411.647 143ZM405.505 137.676L408.033 133.363V133.363L405.505 137.676ZM391.06 136.866L388.452 132.6C388.416 132.622 388.379 132.645 388.343 132.669L391.06 136.866ZM513.568 174.801L510.129 178.431L510.129 178.431L513.568 174.801ZM510.899 172V167C508.945 167 507.169 168.139 506.354 169.916C505.54 171.692 505.835 173.781 507.11 175.262L510.899 172ZM519.238 178.581L517.245 183.167C517.268 183.177 517.292 183.187 517.315 183.197L519.238 178.581ZM533.008 177.906L529.91 173.982C529.875 174.009 529.841 174.037 529.807 174.065L533.008 177.906ZM535.566 172L540.562 171.8C540.454 169.118 538.249 167 535.566 167V172ZM99.8368 79.3414H105.102V69.3414H99.8368V79.3414ZM92.5468 79.3414H99.8368V69.3414H92.5468V79.3414ZM97.5468 181.647V74.3414H87.5468V181.647H97.5468ZM101.532 165.341L88.9765 178.146L96.117 185.147L108.672 172.342L101.532 165.341ZM100.102 123.751V168.841H110.102V123.751H100.102ZM129.358 118.751H105.102V128.751H129.358V118.751ZM137.172 108.641L125.788 120.251L132.928 127.252L144.312 115.642L137.172 108.641ZM105.102 117.141H140.742V107.141H105.102V117.141ZM100.102 86.0864V112.141H110.102V86.0864H100.102ZM141.173 81.0864H105.102V91.0864H141.173V81.0864ZM149.441 70.7982L137.645 82.5432L144.701 89.6295L156.496 77.8845L149.441 70.7982ZM105.102 79.3414H152.968V69.3414H105.102V79.3414ZM149.77 152.076C147.441 147.944 146.229 143.223 146.229 137.791H136.229C136.229 144.779 137.807 151.219 141.058 156.986L149.77 152.076ZM159.513 161.67C155.408 159.313 152.159 156.107 149.715 151.982L141.113 157.08C144.429 162.676 148.92 167.12 154.535 170.343L159.513 161.67ZM173.629 165.191C168.301 165.191 163.622 163.986 159.479 161.651L154.569 170.362C160.326 173.607 166.717 175.191 173.629 175.191V165.191ZM187.745 161.67C183.722 163.979 179.062 165.191 173.629 165.191V175.191C180.616 175.191 187.026 173.613 192.723 170.343L187.745 161.67ZM197.543 151.982C195.099 156.107 191.85 159.313 187.745 161.67L192.723 170.343C198.338 167.12 202.829 162.676 206.145 157.08L197.543 151.982ZM201.164 137.791C201.164 143.195 199.921 147.894 197.522 152.017L206.166 157.046C209.527 151.268 211.164 144.808 211.164 137.791H201.164ZM197.543 123.6C199.914 127.602 201.164 132.282 201.164 137.791H211.164C211.164 130.7 209.534 124.22 206.145 118.502L197.543 123.6ZM187.745 113.913C191.85 116.27 195.099 119.476 197.543 123.6L206.145 118.502C202.829 112.907 198.338 108.463 192.723 105.24L187.745 113.913ZM173.629 110.391C179.062 110.391 183.722 111.603 187.745 113.913L192.723 105.24C187.026 101.969 180.616 100.391 173.629 100.391V110.391ZM159.479 113.932C163.622 111.597 168.301 110.391 173.629 110.391V100.391C166.717 100.391 160.326 101.976 154.569 105.221L159.479 113.932ZM149.715 123.6C152.159 119.476 155.408 116.27 159.513 113.913L154.535 105.24C148.92 108.463 144.429 112.907 141.113 118.502L149.715 123.6ZM146.229 137.791C146.229 132.254 147.447 127.553 149.75 123.541L141.078 118.562C137.801 124.27 136.229 130.729 136.229 137.791H146.229ZM221.878 101.741H210.133V111.741H221.878V101.741ZM226.878 114.046V106.741H216.878V114.046H226.878ZM223.464 104.874C221.249 106.661 219.333 108.818 217.701 111.296L226.054 116.795C227.171 115.098 228.406 113.736 229.741 112.658L223.464 104.874ZM235.243 100.391C230.977 100.391 227.044 102.077 223.524 104.826L229.681 112.706C231.922 110.956 233.749 110.391 235.243 110.391V100.391ZM243.034 101.593C240.573 100.773 237.961 100.391 235.243 100.391V110.391C237.024 110.391 238.553 110.64 239.872 111.08L243.034 101.593ZM250.388 106.176C248.262 104.05 245.786 102.468 242.969 101.572L239.937 111.101C241.079 111.465 242.203 112.133 243.317 113.247L250.388 106.176ZM244.873 122.232L251.083 112.377L242.622 107.046L236.412 116.901L244.873 122.232ZM234.933 121.938C235.53 122.168 236.426 122.654 237.643 123.566L243.643 115.566C241.98 114.319 240.265 113.275 238.523 112.605L234.933 121.938ZM232.273 121.461C233.618 121.461 234.326 121.67 234.632 121.811L238.823 112.732C236.789 111.793 234.528 111.461 232.273 111.461V121.461ZM229.371 122.236C229.755 121.896 230.531 121.461 232.273 121.461V111.461C228.794 111.461 225.43 112.376 222.755 114.737L229.371 122.236ZM227.651 125.186C228.072 123.623 228.678 122.81 229.241 122.346L222.884 114.627C220.387 116.683 218.834 119.47 217.995 122.586L227.651 125.186ZM226.878 131.716C226.878 129.085 227.158 126.946 227.637 125.235L218.008 122.538C217.227 125.327 216.878 128.408 216.878 131.716H226.878ZM226.878 160.841V131.716H216.878V160.841H226.878ZM213.802 176.928L225.547 164.238L218.208 157.445L206.463 170.135L213.802 176.928ZM205.133 106.741V173.531H215.133V106.741H205.133ZM269.777 181.201C273.61 183.597 278.086 184.661 282.957 184.661V174.661C279.549 174.661 277.005 173.926 275.077 172.721L269.777 181.201ZM261.269 171.354C263.173 175.497 266.004 178.843 269.777 181.201L275.077 172.721C273.091 171.48 271.512 169.695 270.356 167.179L261.269 171.354ZM258.81 161.042C259.12 164.749 259.894 168.177 261.223 171.251L270.402 167.282C269.585 165.394 269.014 163.063 268.776 160.211L258.81 161.042ZM312.522 155.626H263.793V165.626H312.522V155.626ZM307.522 159.276V160.626H317.522V159.276H307.522ZM307.657 157.251C307.657 157.646 307.629 158.112 307.561 158.656L317.484 159.897C317.596 159.001 317.657 158.117 317.657 157.251H307.657ZM304.557 142.511C306.557 146.436 307.657 151.294 307.657 157.251H317.657C317.657 150.069 316.328 143.587 313.468 137.972L304.557 142.511ZM296.407 133.648C299.907 135.648 302.602 138.528 304.523 142.443L313.501 138.039C310.742 132.415 306.688 128.005 301.368 124.965L296.407 133.648ZM282.957 130.391C288.461 130.391 292.85 131.543 296.341 133.609L301.434 125.003C296.104 121.849 289.874 120.391 282.957 120.391V130.391ZM279.764 130.533C280.794 130.439 281.858 130.391 282.957 130.391V120.391C281.567 120.391 280.199 120.452 278.854 120.575L279.764 130.533ZM255.716 154.548L282.73 129.2L275.888 121.908L248.873 147.256L255.716 154.548ZM256.772 157.791C256.772 155.624 256.929 153.592 257.232 151.689L247.357 150.115C246.964 152.582 246.772 155.143 246.772 157.791H256.772ZM259.991 172.365C257.897 168.326 256.772 163.514 256.772 157.791H246.772C246.772 164.848 248.168 171.287 251.114 176.968L259.991 172.365ZM268.717 181.892C265.01 179.593 262.111 176.453 259.991 172.365L251.114 176.968C254.034 182.6 258.155 187.109 263.448 190.391L268.717 181.892ZM274.673 184.351C272.496 183.792 270.496 182.959 268.655 181.854L263.51 190.429C266.203 192.044 269.102 193.246 272.189 194.037L274.673 184.351ZM279.421 176.127L269.894 185.66L276.968 192.728L286.494 183.196L279.421 176.127ZM304.832 157.791V157.263H294.832V157.791H304.832ZM295.021 158.623C294.987 158.502 294.894 158.151 294.883 157.662C294.871 157.142 294.95 156.375 295.36 155.555L304.305 160.027C305.252 158.133 304.779 156.381 304.644 155.903L295.021 158.623ZM352.813 151.041V182.841H362.813V151.041H352.813ZM350.777 143.09C351.856 144.35 352.813 146.717 352.813 151.041H362.813C362.813 145.466 361.609 140.363 358.369 136.582L350.777 143.09ZM344.988 140.921C348.132 140.921 349.741 141.84 350.721 143.024L358.425 136.649C355.084 132.612 350.304 130.921 344.988 130.921V140.921ZM339.258 142.214C340.766 141.402 342.629 140.921 344.988 140.921V130.921C341.227 130.921 337.689 131.701 334.517 133.409L339.258 142.214ZM336.025 145.582C336.849 144.052 337.936 142.955 339.331 142.174L334.445 133.449C331.339 135.188 328.916 137.691 327.22 140.841L336.025 145.582ZM334.733 151.041C334.733 148.796 335.203 147.051 335.985 145.654L327.26 140.768C325.523 143.871 324.733 147.347 324.733 151.041H334.733ZM334.733 183.841V151.041H324.733V183.841H334.733ZM321.386 199.246L333.266 187.379L326.199 180.304L314.319 192.172L321.386 199.246ZM312.853 138.512V195.709H322.853V138.512H312.853ZM326.214 123.189L314.334 134.96L321.372 142.064L333.252 130.293L326.214 123.189ZM334.733 136.461V126.741H324.733V136.461H334.733ZM334.758 123.782C330.744 126.143 327.629 129.703 325.304 134.141L334.162 138.781C335.797 135.66 337.722 133.64 339.828 132.401L334.758 123.782ZM348.228 120.391C343.342 120.391 338.819 121.461 334.812 123.75L339.773 132.433C342.067 131.122 344.833 130.391 348.228 130.391V120.391ZM367.651 128.579C362.765 122.995 356.074 120.391 348.228 120.391V130.391C353.701 130.391 357.451 132.107 360.125 135.164L367.651 128.579ZM374.038 142.081C373.061 136.855 370.961 132.273 367.612 128.535L360.164 135.208C362.13 137.403 363.52 140.24 364.208 143.919L374.038 142.081ZM369.123 148H377.456V138H369.123V148ZM382.448 142.723C382.433 142.445 382.425 142.158 382.425 141.861H372.425C372.425 142.337 372.437 142.809 372.463 143.277L382.448 142.723ZM382.425 141.861C382.425 139.055 383.127 137.139 384.206 135.751L376.313 129.612C373.612 133.084 372.425 137.288 372.425 141.861H382.425ZM384.191 135.77C385.574 134.011 387.365 132.699 389.696 131.833L386.214 122.459C382.244 123.934 378.905 126.312 376.328 129.592L384.191 135.77ZM389.696 131.833C392.279 130.874 394.973 130.391 397.81 130.391V120.391C393.806 120.391 389.931 121.079 386.214 122.459L389.696 131.833ZM397.81 130.391C400.697 130.391 403.245 130.846 405.504 131.693L409.015 122.33C405.515 121.017 401.762 120.391 397.81 120.391V130.391ZM405.679 131.755C408.137 132.574 410.215 133.7 411.966 135.101L418.213 127.292C415.464 125.093 412.322 123.428 408.841 122.268L405.679 131.755ZM412.14 135.233C413.577 136.284 414.854 137.56 415.728 138.783L423.863 132.968C422.298 130.779 420.234 128.763 418.04 127.159L412.14 135.233ZM416.245 132.355L409.181 139.479L416.281 146.521L423.346 139.396L416.245 132.355ZM412.731 148H427.537V138H412.731V148ZM422.537 133.741V143H432.537V133.741H422.537ZM435.753 118.498L424.008 130.199L431.066 137.283L442.811 125.582L435.753 118.498ZM444.282 143V122.04H434.282V143H444.282ZM439.282 148H448.986V138H439.282V148ZM453.466 145.221C453.738 144.67 454.031 144.131 454.346 143.6L445.743 138.502C445.302 139.247 444.889 140.006 444.506 140.779L453.466 145.221ZM454.346 143.6C456.79 139.476 460.038 136.27 464.144 133.913L459.165 125.24C453.55 128.463 449.059 132.907 445.743 138.502L454.346 143.6ZM464.109 133.932C468.253 131.597 472.931 130.391 478.259 130.391V120.391C471.347 120.391 464.956 121.976 459.199 125.221L464.109 133.932ZM478.259 130.391C481.947 130.391 485.496 130.978 488.931 132.149L492.158 122.684C487.672 121.155 483.032 120.391 478.259 120.391V130.391ZM488.931 132.149C492.302 133.298 494.543 134.784 495.987 136.408L503.461 129.765C500.585 126.529 496.706 124.234 492.158 122.684L488.931 132.149ZM496.193 129.546L489.178 136.543L496.24 143.623L503.255 136.627L496.193 129.546ZM495.349 135.837C493.462 134.663 491.405 133.706 489.2 132.948L485.949 142.405C487.514 142.943 488.88 143.59 490.069 144.329L495.349 135.837ZM489.2 132.948C485.764 131.767 482.152 131.191 478.394 131.191V141.191C481.117 141.191 483.624 141.606 485.949 142.405L489.2 132.948ZM478.394 131.191C473.646 131.191 469.222 132.28 465.248 134.55L470.21 143.233C472.536 141.903 475.222 141.191 478.394 141.191V131.191ZM465.194 134.582C462.852 135.959 460.796 137.697 459.042 139.778L466.689 146.222C467.716 145.003 468.902 144.002 470.264 143.201L465.194 134.582ZM462.866 148H503.609V138H462.866V148ZM498.578 141.861C498.578 142.337 498.591 142.809 498.617 143.277L508.602 142.723C508.586 142.445 508.578 142.158 508.578 141.861H498.578ZM502.466 129.612C499.766 133.084 498.578 137.288 498.578 141.861H508.578C508.578 139.055 509.281 137.139 510.36 135.751L502.466 129.612ZM512.367 122.459C508.398 123.934 505.059 126.312 502.482 129.592L510.345 135.77C511.728 134.011 513.519 132.699 515.849 131.833L512.367 122.459ZM523.963 120.391C519.96 120.391 516.084 121.079 512.367 122.459L515.849 131.833C518.432 130.874 521.127 130.391 523.963 130.391V120.391ZM535.169 122.33C531.668 121.017 527.916 120.391 523.963 120.391V130.391C526.85 130.391 529.398 130.846 531.658 131.693L535.169 122.33ZM544.367 127.292C541.618 125.093 538.475 123.428 534.994 122.268L531.832 131.755C534.291 132.574 536.369 133.7 538.12 135.101L544.367 127.292ZM550.017 132.968C548.452 130.779 546.387 128.763 544.193 127.159L538.293 135.233C539.73 136.284 541.007 137.56 541.882 138.783L550.017 132.968ZM541.824 147.137L549.5 139.396L542.399 132.355L534.723 140.096L541.824 147.137ZM529.13 141.99C531.158 143.179 532.857 144.704 534.255 146.592L542.291 140.64C540.09 137.668 537.378 135.234 534.187 133.363L529.13 141.99ZM522.883 140.381C525.3 140.381 527.341 140.941 529.13 141.99L534.187 133.363C530.755 131.351 526.947 130.381 522.883 130.381V140.381ZM519.82 141.133C520.552 140.686 521.514 140.381 522.883 140.381V130.381C519.933 130.381 517.115 131.067 514.606 132.6L519.82 141.133ZM519.918 141.321C519.918 141.148 519.935 141.048 519.944 141.007C519.952 140.969 519.955 140.977 519.937 141.012C519.918 141.049 519.894 141.081 519.875 141.101C519.859 141.12 519.868 141.104 519.929 141.064L514.497 132.669C511.402 134.671 509.918 137.82 509.918 141.321H519.918ZM519.931 141.417C519.924 141.395 519.918 141.371 519.918 141.321H509.918C509.918 142.429 510.092 143.524 510.446 144.583L519.931 141.417ZM515.189 148H537V138H515.189V148ZM532 143V155.878H542V143H532ZM540.286 152.007C540.022 151.851 539.757 151.695 539.488 151.542L534.512 160.215C534.737 160.345 534.96 160.475 535.18 160.606L540.286 152.007ZM548.79 159.296C546.578 156.27 543.637 153.831 540.127 151.917L535.339 160.696C537.77 162.022 539.508 163.543 540.716 165.196L548.79 159.296ZM552.453 171.291C552.453 166.779 551.342 162.611 548.716 159.198L540.79 165.295C541.765 166.562 542.453 168.424 542.453 171.291H552.453ZM544.877 188.626C549.909 184.051 552.453 178.149 552.453 171.291H542.453C542.453 175.414 541.037 178.602 538.15 181.227L544.877 188.626ZM525.853 195.326C533.365 195.326 539.912 193.244 544.919 188.587L538.108 181.265C535.374 183.808 531.481 185.326 525.853 185.326V195.326ZM512.573 192.775C516.674 194.501 521.124 195.326 525.853 195.326V185.326C522.302 185.326 519.192 184.711 516.453 183.558L512.573 192.775ZM502.476 186.3C505.359 188.97 508.729 191.112 512.529 192.756L516.498 183.577C513.638 182.34 511.247 180.793 509.27 178.963L502.476 186.3ZM496.99 179.615C498.451 181.894 500.246 184.075 502.338 186.167L509.409 179.096C507.749 177.436 506.428 175.807 505.409 174.218L496.99 179.615ZM502.695 168.435L497.694 173.351L504.705 180.482L509.706 175.565L502.695 168.435ZM506.2 167H462.44V177H506.2V167ZM458.525 175.11C460.37 177.432 462.57 179.382 465.102 180.945L470.357 172.437C468.8 171.476 467.474 170.298 466.355 168.89L458.525 175.11ZM465.248 181.033C469.222 183.303 473.646 184.391 478.394 184.391V174.391C475.222 174.391 472.536 173.68 470.21 172.35L465.248 181.033ZM478.394 184.391C482.152 184.391 485.764 183.816 489.2 182.635L485.949 173.178C483.624 173.977 481.117 174.391 478.394 174.391V184.391ZM489.2 182.635C492.572 181.476 495.593 179.851 498.184 177.711L491.815 170.002C490.266 171.281 488.336 172.357 485.949 173.178L489.2 182.635ZM498.103 177.777C498.346 177.584 498.584 177.389 498.818 177.192L492.359 169.557C492.21 169.683 492.056 169.81 491.896 169.936L498.103 177.777ZM492.053 169.839L475.239 186.652L482.31 193.724L499.124 176.91L492.053 169.839ZM478.71 185.188C478.56 185.19 478.41 185.191 478.259 185.191V195.191C478.453 195.191 478.646 195.19 478.84 195.188L478.71 185.188ZM478.259 185.191C472.931 185.191 468.253 183.986 464.109 181.651L459.199 190.362C464.956 193.607 471.347 195.191 478.259 195.191V185.191ZM464.144 181.67C460.038 179.313 456.79 176.107 454.346 171.982L445.743 177.08C449.059 182.676 453.55 187.12 459.165 190.343L464.144 181.67ZM454.366 172.017C453.962 171.322 453.592 170.614 453.256 169.892L444.188 174.108C444.654 175.109 445.165 176.088 445.722 177.046L454.366 172.017ZM448.722 167H439.282V177H448.722V167ZM444.282 184.219V172H434.282V184.219H444.282ZM431.054 199.395L442.799 187.773L435.765 180.665L424.02 192.287L431.054 199.395ZM422.537 172V195.841H432.537V172H422.537ZM427.537 167H421.289V177H427.537V167ZM416.291 171.841C416.169 175.679 414.771 178.705 411.996 181.227L418.723 188.626C423.525 184.26 426.079 178.668 426.286 172.159L416.291 171.841ZM411.954 181.265C409.221 183.808 405.327 185.326 399.7 185.326V195.326C407.212 195.326 413.759 193.244 418.765 188.587L411.954 181.265ZM399.7 185.326C396.149 185.326 393.038 184.711 390.3 183.558L386.419 192.775C390.521 194.501 394.97 195.326 399.7 195.326V185.326ZM390.344 183.577C387.484 182.34 385.094 180.793 383.117 178.963L376.323 186.3C379.206 188.97 382.575 191.112 386.375 192.756L390.344 183.577ZM383.255 179.096C381.595 177.436 380.274 175.807 379.255 174.218L370.837 179.615C372.297 181.894 374.092 184.075 376.184 186.167L383.255 179.096ZM378.552 180.482L383.552 175.565L376.541 168.435L371.541 173.351L378.552 180.482ZM380.047 167H368.613V177H380.047V167ZM361.355 186.37L372.156 175.529L365.071 168.471L354.271 179.312L361.355 186.37ZM380.957 175.262C381.915 176.375 382.921 177.432 383.976 178.431L390.853 171.172C390.049 170.409 389.276 169.599 388.535 168.738L380.957 175.262ZM383.976 178.431C386.09 180.434 388.464 182.025 391.091 183.167L395.078 173.996C393.565 173.338 392.16 172.409 390.853 171.172L383.976 178.431ZM391.162 183.197C393.954 184.36 396.905 184.931 399.97 184.931V174.931C398.174 174.931 396.535 174.602 395.008 173.966L391.162 183.197ZM399.97 184.931C403.638 184.931 407.232 184.101 410.056 181.747L403.654 174.065C403.238 174.412 402.241 174.931 399.97 174.931V184.931ZM409.953 181.831C412.963 179.455 414.42 176.111 414.42 172.371H404.42C404.42 173.312 404.167 173.658 403.756 173.982L409.953 181.831ZM414.42 172.371C414.42 172.18 414.416 171.99 414.408 171.8L404.416 172.2C404.419 172.255 404.42 172.312 404.42 172.371H414.42ZM409.412 167H384.746V177H409.412V167ZM389.035 148H411.647V138H389.035V148ZM415.561 139.889C413.466 137.252 410.948 135.071 408.033 133.363L402.976 141.99C404.833 143.079 406.41 144.447 407.732 146.111L415.561 139.889ZM408.033 133.363C404.602 131.351 400.793 130.381 396.73 130.381V140.381C399.146 140.381 401.187 140.941 402.976 141.99L408.033 133.363ZM396.73 130.381C393.779 130.381 390.961 131.067 388.452 132.6L393.667 141.133C394.398 140.686 395.36 140.381 396.73 140.381V130.381ZM388.343 132.669C385.249 134.671 383.765 137.82 383.765 141.321H393.765C393.765 141.148 393.781 141.048 393.791 141.007C393.799 140.969 393.801 140.977 393.783 141.012C393.764 141.049 393.741 141.081 393.722 141.101C393.705 141.12 393.714 141.104 393.776 141.064L388.343 132.669ZM383.765 141.321C383.765 142.429 383.939 143.524 384.293 144.583L393.778 141.417C393.771 141.395 393.765 141.371 393.765 141.321H383.765ZM517.007 171.172C516.202 170.409 515.43 169.599 514.688 168.738L507.11 175.262C508.069 176.375 509.075 177.432 510.129 178.431L517.007 171.172ZM521.232 173.996C519.718 173.338 518.313 172.409 517.007 171.172L510.129 178.431C512.243 180.434 514.618 182.025 517.245 183.167L521.232 173.996ZM526.123 174.931C524.327 174.931 522.688 174.602 521.161 173.966L517.315 183.197C520.108 184.36 523.059 184.931 526.123 184.931V174.931ZM529.807 174.065C529.391 174.412 528.395 174.931 526.123 174.931V184.931C529.792 184.931 533.385 184.101 536.209 181.747L529.807 174.065ZM530.573 172.371C530.573 173.312 530.32 173.658 529.91 173.982L536.106 181.831C539.116 179.455 540.573 176.111 540.573 172.371H530.573ZM530.57 172.2C530.572 172.255 530.573 172.312 530.573 172.371H540.573C540.573 172.18 540.569 171.99 540.562 171.8L530.57 172.2ZM535.566 167H510.899V177H535.566V167Z" fill="white" mask="url(#path-1-outside-1_3_45)"/>
<mask id="path-3-outside-2_3_45" maskUnits="userSpaceOnUse" x="172.449" y="16.6359" width="298" height="224" fill="black">
<rect fill="white" x="172.449" y="16.6359" width="298" height="224"/>
<path fill-rule="evenodd" clip-rule="evenodd" d="M458.177 32.5706C468.136 43.6302 459.651 69.3624 437.947 101.828C461.826 67.675 471.438 40.1481 460.897 28.0216C440.847 4.95637 355.474 46.3419 270.213 120.459C231.227 154.349 199.014 189.214 177.449 219.282L177.449 234.705C198.263 203.306 231.602 165.476 272.678 128.491C355.599 53.8284 438.65 10.8834 458.177 32.5706Z"/>
</mask>
<path fill-rule="evenodd" clip-rule="evenodd" d="M458.177 32.5706C468.136 43.6302 459.651 69.3624 437.947 101.828C461.826 67.675 471.438 40.1481 460.897 28.0216C440.847 4.95637 355.474 46.3419 270.213 120.459C231.227 154.349 199.014 189.214 177.449 219.282L177.449 234.705C198.263 203.306 231.602 165.476 272.678 128.491C355.599 53.8284 438.65 10.8834 458.177 32.5706Z" fill="white"/>
<path d="M437.947 101.828L433.79 99.0489C432.266 101.328 432.862 104.408 435.124 105.955C437.387 107.502 440.474 106.939 442.044 104.693L437.947 101.828ZM458.177 32.5706L461.893 29.2249V29.2249L458.177 32.5706ZM460.897 28.0216L464.671 24.7413V24.7413L460.897 28.0216ZM270.213 120.459L273.493 124.232L270.213 120.459ZM177.449 219.282L173.386 216.368C172.777 217.218 172.449 218.237 172.449 219.282H177.449ZM177.449 234.705H172.449C172.449 236.911 173.894 238.856 176.006 239.492C178.118 240.129 180.398 239.306 181.616 237.468L177.449 234.705ZM272.678 128.491L269.333 124.775L272.678 128.491ZM442.103 104.607C453.082 88.1838 460.929 73.1653 464.721 60.6189C468.413 48.4073 468.744 36.8338 461.893 29.2249L454.462 35.9162C457.569 39.367 458.637 46.1893 455.149 57.7251C451.763 68.926 444.515 83.0063 433.79 99.0489L442.103 104.607ZM457.123 31.3019C460.563 35.2589 461.528 42.8157 457.569 55.1351C453.716 67.127 445.653 82.0793 433.849 98.9627L442.044 104.693C454.119 87.4234 462.802 71.5359 467.09 58.1945C471.272 45.1807 471.772 32.9108 464.671 24.7413L457.123 31.3019ZM273.493 124.232C315.89 87.3775 358.182 58.7819 392.19 42.2961C409.228 34.0369 423.923 28.947 435.364 27.258C447.079 25.5286 453.861 27.5487 457.123 31.3019L464.671 24.7413C457.908 16.962 446.499 15.5058 433.904 17.3652C421.034 19.265 405.298 24.8291 387.828 33.2977C352.822 50.2675 309.798 79.4231 266.932 116.685L273.493 124.232ZM181.512 222.197C202.802 192.511 234.731 157.928 273.493 124.232L266.932 116.685C227.723 150.77 195.226 185.917 173.386 216.368L181.512 222.197ZM172.449 219.282V234.705H182.449V219.282H172.449ZM269.333 124.775C228.035 161.96 194.388 200.103 173.281 231.942L181.616 237.468C202.139 206.509 235.17 168.992 276.024 132.207L269.333 124.775ZM461.893 29.2249C455.172 21.7603 443.932 20.7778 431.725 22.9895C419.2 25.2587 403.893 31.1733 386.904 39.9583C352.857 57.5635 311.016 87.2435 269.333 124.775L276.024 132.207C317.262 95.0758 358.406 65.9521 391.497 48.841C408.077 40.2677 422.377 34.846 433.507 32.8293C444.955 30.7552 451.419 32.5373 454.462 35.9162L461.893 29.2249Z" fill="white" mask="url(#path-3-outside-2_3_45)"/>
<mask id="path-5-outside-3_3_45" maskUnits="userSpaceOnUse" x="141.933" y="186.821" width="75" height="89" fill="black">
<rect fill="white" x="141.933" y="186.821" width="75" height="89"/>
<path fill-rule="evenodd" clip-rule="evenodd" d="M177.901 192.303L174.399 222.881L155.49 210.131L169.832 227.111L146.933 230.66L169.862 233.319L154.522 251.482L174.317 238.134L178.226 269.882L181.852 238.214L201.157 251.231L186.661 234.068L211.898 230.156L186.71 227.235L201.157 210.131L181.71 223.244L177.901 192.303Z"/>
</mask>
<path fill-rule="evenodd" clip-rule="evenodd" d="M177.901 192.303L174.399 222.881L155.49 210.131L169.832 227.111L146.933 230.66L169.862 233.319L154.522 251.482L174.317 238.134L178.226 269.882L181.852 238.214L201.157 251.231L186.661 234.068L211.898 230.156L186.71 227.235L201.157 210.131L181.71 223.244L177.901 192.303Z" fill="white"/>
<path d="M175.473 191.536L175.418 192.019L180.385 192.588L180.44 192.105L175.473 191.536ZM180.654 270.649L180.709 270.166L175.742 269.597L175.687 270.08L180.654 270.649ZM174.399 222.881L171.604 227.027C173.052 228.003 174.905 228.153 176.492 227.422C178.078 226.691 179.168 225.185 179.367 223.45L174.399 222.881ZM177.901 192.303L182.864 191.692C182.554 189.178 180.413 187.293 177.88 187.303C175.347 187.314 173.222 189.218 172.934 191.734L177.901 192.303ZM155.49 210.131L158.286 205.985C156.216 204.59 153.436 204.934 151.769 206.792C150.102 208.649 150.06 211.451 151.67 213.357L155.49 210.131ZM169.832 227.111L170.598 232.052C172.384 231.775 173.882 230.555 174.515 228.862C175.148 227.169 174.818 225.266 173.652 223.885L169.832 227.111ZM146.933 230.66L146.167 225.719C143.694 226.103 141.886 228.254 141.934 230.756C141.981 233.258 143.871 235.339 146.357 235.627L146.933 230.66ZM169.862 233.319L173.682 236.545C174.87 235.138 175.189 233.191 174.511 231.478C173.833 229.766 172.268 228.564 170.438 228.352L169.862 233.319ZM154.522 251.482L150.702 248.255C149.091 250.162 149.133 252.964 150.8 254.821C152.467 256.678 155.248 257.022 157.317 255.627L154.522 251.482ZM174.317 238.134L179.28 237.523C179.067 235.797 177.973 234.305 176.39 233.584C174.808 232.863 172.964 233.016 171.522 233.988L174.317 238.134ZM178.226 269.882L173.263 270.493C173.573 273.007 175.714 274.892 178.247 274.882C180.78 274.871 182.905 272.967 183.193 270.451L178.226 269.882ZM181.852 238.214L184.648 234.068C183.199 233.092 181.347 232.942 179.76 233.673C178.174 234.404 177.084 235.91 176.885 237.645L181.852 238.214ZM201.157 251.231L198.362 255.376C200.431 256.772 203.212 256.428 204.879 254.57C206.545 252.713 206.587 249.911 204.977 248.005L201.157 251.231ZM186.661 234.068L185.895 229.127C184.109 229.404 182.611 230.623 181.978 232.317C181.344 234.01 181.675 235.913 182.841 237.294L186.661 234.068ZM211.898 230.156L212.664 235.097C215.137 234.714 216.945 232.562 216.897 230.06C216.849 227.559 214.96 225.477 212.474 225.189L211.898 230.156ZM186.71 227.235L182.891 224.009C181.702 225.416 181.383 227.363 182.062 229.076C182.74 230.789 184.305 231.99 186.135 232.202L186.71 227.235ZM201.157 210.131L204.977 213.357C206.587 211.451 206.545 208.649 204.879 206.792C203.212 204.934 200.431 204.59 198.362 205.985L201.157 210.131ZM181.71 223.244L176.748 223.855C176.96 225.581 178.055 227.072 179.637 227.794C181.22 228.515 183.064 228.362 184.506 227.389L181.71 223.244ZM179.367 223.45L182.869 192.872L172.934 191.734L169.432 222.312L179.367 223.45ZM152.695 214.277L171.604 227.027L177.195 218.736L158.286 205.985L152.695 214.277ZM173.652 223.885L159.31 206.905L151.67 213.357L166.012 230.337L173.652 223.885ZM147.698 235.601L170.598 232.052L169.066 222.17L146.167 225.719L147.698 235.601ZM170.438 228.352L147.508 225.694L146.357 235.627L169.286 238.286L170.438 228.352ZM158.341 254.708L173.682 236.545L166.042 230.093L150.702 248.255L158.341 254.708ZM171.522 233.988L151.726 247.336L157.317 255.627L177.113 242.279L171.522 233.988ZM183.188 269.271L179.28 237.523L169.355 238.745L173.263 270.493L183.188 269.271ZM176.885 237.645L173.258 269.313L183.193 270.451L186.82 238.783L176.885 237.645ZM203.952 247.085L184.648 234.068L179.057 242.36L198.362 255.376L203.952 247.085ZM182.841 237.294L197.337 254.457L204.977 248.005L190.481 230.841L182.841 237.294ZM211.132 225.215L185.895 229.127L187.427 239.009L212.664 235.097L211.132 225.215ZM186.135 232.202L211.322 235.123L212.474 225.189L187.286 222.269L186.135 232.202ZM197.337 206.905L182.891 224.009L190.53 230.462L204.977 213.357L197.337 206.905ZM184.506 227.389L203.952 214.277L198.362 205.985L178.915 219.098L184.506 227.389ZM172.939 192.914L176.748 223.855L186.673 222.633L182.864 191.692L172.939 192.914Z" fill="white" mask="url(#path-5-outside-3_3_45)"/>
<mask id="path-7-outside-4_3_45" maskUnits="userSpaceOnUse" x="414.935" y="92.4518" width="35" height="34" fill="black">
<rect fill="white" x="414.935" y="92.4518" width="35" height="34"/>
<path fill-rule="evenodd" clip-rule="evenodd" d="M419.935 109.706L430.337 111.192L431.754 121.116L433.4 111.243L444.161 109.706L433.5 107.93L431.754 97.4518L430.25 107.987L419.935 109.706Z"/>
</mask>
<path fill-rule="evenodd" clip-rule="evenodd" d="M419.935 109.706L430.337 111.192L431.754 121.116L433.4 111.243L444.161 109.706L433.5 107.93L431.754 97.4518L430.25 107.987L419.935 109.706Z" fill="white"/>
<path d="M430.337 111.192L435.287 110.485C434.973 108.285 433.244 106.556 431.044 106.242L430.337 111.192ZM419.935 109.706L419.113 104.774C416.68 105.18 414.907 107.299 414.935 109.765C414.964 112.231 416.787 114.308 419.228 114.656L419.935 109.706ZM431.754 121.116L426.804 121.823C427.153 124.264 429.23 126.087 431.696 126.116C434.162 126.144 436.281 124.371 436.686 121.938L431.754 121.116ZM433.4 111.243L432.693 106.293C430.535 106.601 428.826 108.271 428.468 110.421L433.4 111.243ZM444.161 109.706L444.868 114.656C447.31 114.308 449.132 112.231 449.161 109.765C449.19 107.299 447.416 105.18 444.983 104.774L444.161 109.706ZM433.5 107.93L428.568 108.752C428.92 110.859 430.571 112.51 432.678 112.862L433.5 107.93ZM431.754 97.4518L436.686 96.6299C436.281 94.1971 434.162 92.4234 431.696 92.4522C429.23 92.4809 427.153 94.3035 426.804 96.745L431.754 97.4518ZM430.25 107.987L431.072 112.919C433.222 112.561 434.892 110.852 435.2 108.694L430.25 107.987ZM431.044 106.242L420.642 104.757L419.228 114.656L429.63 116.141L431.044 106.242ZM436.704 120.409L435.287 110.485L425.387 111.898L426.804 121.823L436.704 120.409ZM428.468 110.421L426.822 120.294L436.686 121.938L438.332 112.065L428.468 110.421ZM443.454 104.757L432.693 106.293L434.106 116.193L444.868 114.656L443.454 104.757ZM432.678 112.862L443.339 114.638L444.983 104.774L434.322 102.998L432.678 112.862ZM426.822 98.2738L428.568 108.752L438.432 107.108L436.686 96.6299L426.822 98.2738ZM435.2 108.694L436.704 98.1586L426.804 96.745L425.3 107.28L435.2 108.694ZM420.757 114.638L431.072 112.919L429.428 103.055L419.113 104.774L420.757 114.638Z" fill="white" mask="url(#path-7-outside-4_3_45)"/>
<mask id="path-9-outside-5_3_45" maskUnits="userSpaceOnUse" x="413.311" y="112.622" width="18" height="17" fill="black">
<rect fill="white" x="413.311" y="112.622" width="18" height="17"/>
<path fill-rule="evenodd" clip-rule="evenodd" d="M418.311 121.24L421.383 121.679L421.801 124.609L422.287 121.694L425.465 121.24L422.317 120.716L421.801 117.622L421.357 120.733L418.311 121.24Z"/>
</mask>
<path fill-rule="evenodd" clip-rule="evenodd" d="M418.311 121.24L421.383 121.679L421.801 124.609L422.287 121.694L425.465 121.24L422.317 120.716L421.801 117.622L421.357 120.733L418.311 121.24Z" fill="white"/>
<path d="M421.383 121.679L426.333 120.972C426.019 118.772 424.29 117.043 422.09 116.729L421.383 121.679ZM418.311 121.24L417.489 116.308C415.056 116.714 413.283 118.832 413.311 121.299C413.34 123.765 415.163 125.841 417.604 126.19L418.311 121.24ZM421.801 124.609L416.852 125.316C417.2 127.758 419.277 129.58 421.743 129.609C424.209 129.638 426.328 127.864 426.733 125.431L421.801 124.609ZM422.287 121.694L421.58 116.744C419.423 117.052 417.714 118.722 417.355 120.872L422.287 121.694ZM425.465 121.24L426.172 126.19C428.613 125.841 430.436 123.765 430.465 121.299C430.494 118.832 428.72 116.714 426.287 116.308L425.465 121.24ZM422.317 120.716L417.385 121.538C417.736 123.645 419.388 125.296 421.495 125.648L422.317 120.716ZM421.801 117.622L426.733 116.8C426.328 114.367 424.209 112.593 421.743 112.622C419.277 112.651 417.2 114.473 416.852 116.915L421.801 117.622ZM421.357 120.733L422.179 125.665C424.329 125.306 425.999 123.597 426.307 121.439L421.357 120.733ZM422.09 116.729L419.018 116.29L417.604 126.19L420.676 126.629L422.09 116.729ZM426.751 123.903L426.333 120.972L416.433 122.386L416.852 125.316L426.751 123.903ZM417.355 120.872L416.869 123.788L426.733 125.431L427.219 122.516L417.355 120.872ZM424.758 116.29L421.58 116.744L422.994 126.644L426.172 126.19L424.758 116.29ZM421.495 125.648L424.643 126.172L426.287 116.308L423.139 115.784L421.495 125.648ZM416.869 118.443L417.385 121.538L427.249 119.894L426.733 116.8L416.869 118.443ZM426.307 121.439L426.751 118.328L416.852 116.915L416.407 120.026L426.307 121.439ZM419.133 126.172L422.179 125.665L420.535 115.801L417.489 116.308L419.133 126.172Z" fill="white" mask="url(#path-9-outside-5_3_45)"/>
<mask id="path-11-outside-6_3_45" maskUnits="userSpaceOnUse" x="430.487" y="86.0224" width="24" height="23" fill="black">
<rect fill="white" x="430.487" y="86.0224" width="24" height="23"/>
<path fill-rule="evenodd" clip-rule="evenodd" d="M435.487 97.6814L441.139 98.4886L441.909 103.881L442.804 98.5165L448.651 97.6814L442.858 96.716L441.909 91.0224L441.092 96.7473L435.487 97.6814Z"/>
</mask>
<path fill-rule="evenodd" clip-rule="evenodd" d="M435.487 97.6814L441.139 98.4886L441.909 103.881L442.804 98.5165L448.651 97.6814L442.858 96.716L441.909 91.0224L441.092 96.7473L435.487 97.6814Z" fill="white"/>
<path d="M441.139 98.4886L446.089 97.7818C445.775 95.5816 444.046 93.8529 441.846 93.5388L441.139 98.4886ZM435.487 97.6814L434.665 92.7495C432.232 93.1549 430.459 95.2736 430.487 97.7397C430.516 100.206 432.339 102.283 434.78 102.631L435.487 97.6814ZM441.909 103.881L436.96 104.588C437.308 107.03 439.385 108.852 441.851 108.881C444.317 108.91 446.436 107.136 446.841 104.703L441.909 103.881ZM442.804 98.5165L442.097 93.5667C439.939 93.8747 438.23 95.5448 437.872 97.6945L442.804 98.5165ZM448.651 97.6814L449.358 102.631C451.8 102.283 453.622 100.206 453.651 97.7397C453.68 95.2736 451.906 93.1549 449.473 92.7495L448.651 97.6814ZM442.858 96.716L437.926 97.5379C438.278 99.6453 439.929 101.297 442.036 101.648L442.858 96.716ZM441.909 91.0224L446.841 90.2004C446.436 87.7677 444.317 85.994 441.851 86.0227C439.385 86.0515 437.308 87.8741 436.96 90.3156L441.909 91.0224ZM441.092 96.7473L441.914 101.679C444.064 101.321 445.734 99.6116 446.042 97.4541L441.092 96.7473ZM441.846 93.5388L436.194 92.7316L434.78 102.631L440.433 103.438L441.846 93.5388ZM446.859 103.175L446.089 97.7818L436.19 99.1953L436.96 104.588L446.859 103.175ZM437.872 97.6945L436.977 103.059L446.841 104.703L447.736 99.3384L437.872 97.6945ZM447.945 92.7316L442.097 93.5667L443.51 103.466L449.358 102.631L447.945 92.7316ZM442.036 101.648L447.829 102.613L449.473 92.7495L443.68 91.784L442.036 101.648ZM436.977 91.8444L437.926 97.5379L447.79 95.894L446.841 90.2004L436.977 91.8444ZM446.042 97.4541L446.859 91.7292L436.96 90.3156L436.142 96.0405L446.042 97.4541ZM436.309 102.613L441.914 101.679L440.27 91.8153L434.665 92.7495L436.309 102.613Z" fill="white" mask="url(#path-11-outside-6_3_45)"/>
<mask id="mask0_3_45" style="mask-type:alpha" maskUnits="userSpaceOnUse" x="92" y="74" width="456" height="122">
<path fill-rule="evenodd" clip-rule="evenodd" d="M99.8368 74.3414H105.102H152.968L141.173 86.0864H105.102V112.141H140.742L129.358 123.751H105.102V168.841L92.5468 181.647V74.3414H99.8368ZM145.414 154.531C142.624 149.581 141.229 144.001 141.229 137.791C141.229 131.491 142.624 125.911 145.414 121.051C148.294 116.191 152.164 112.366 157.024 109.576C161.974 106.786 167.509 105.391 173.629 105.391C179.839 105.391 185.374 106.786 190.234 109.576C195.094 112.366 198.964 116.191 201.844 121.051C204.724 125.911 206.164 131.491 206.164 137.791C206.164 144.001 204.724 149.581 201.844 154.531C198.964 159.391 195.094 163.216 190.234 166.006C185.374 168.796 179.839 170.191 173.629 170.191C167.509 170.191 161.974 168.796 157.024 166.006C152.164 163.216 148.294 159.391 145.414 154.531ZM155.809 126.586C154.009 129.826 153.109 133.561 153.109 137.791C153.109 142.021 154.009 145.756 155.809 148.996C157.609 152.146 160.039 154.666 163.099 156.556C166.249 158.446 169.759 159.391 173.629 159.391C177.589 159.391 181.099 158.446 184.159 156.556C187.219 154.666 189.649 152.146 191.449 148.996C193.249 145.756 194.149 142.021 194.149 137.791C194.149 133.561 193.249 129.826 191.449 126.586C189.649 123.346 187.219 120.826 184.159 119.026C181.099 117.136 177.589 116.191 173.629 116.191C169.759 116.191 166.249 117.136 163.099 119.026C160.039 120.826 157.609 123.346 155.809 126.586ZM221.878 106.741H210.133V173.531L221.878 160.841V131.716C221.878 128.746 222.193 126.136 222.823 123.886C223.453 121.546 224.533 119.746 226.063 118.486C227.593 117.136 229.663 116.461 232.273 116.461C234.073 116.461 235.558 116.731 236.728 117.271C237.898 117.721 239.203 118.486 240.643 119.566L246.853 109.711C245.233 108.091 243.433 106.966 241.453 106.336C239.563 105.706 237.493 105.391 235.243 105.391C232.363 105.391 229.483 106.516 226.603 108.766C224.827 110.198 223.252 111.958 221.878 114.046V106.741ZM272.427 176.961C275.307 178.761 278.817 179.661 282.957 179.661L273.431 189.194C270.799 188.519 268.349 187.501 266.082 186.141C261.582 183.351 258.072 179.526 255.552 174.666C253.032 169.806 251.772 164.181 251.772 157.791C251.772 155.383 251.946 153.087 252.294 150.902L279.309 125.554C280.496 125.446 281.712 125.391 282.957 125.391C289.167 125.391 294.477 126.696 298.887 129.306C303.297 131.826 306.672 135.471 309.012 140.241C311.442 145.011 312.657 150.681 312.657 157.251C312.657 157.881 312.612 158.556 312.522 159.276V160.626H278.29L287.562 151.311H299.782C299.595 148.391 298.892 145.826 297.672 143.616C296.322 141.006 294.342 138.981 291.732 137.541C289.212 136.011 286.287 135.246 282.957 135.246C278.907 135.246 275.442 136.101 272.562 137.811C269.772 139.521 267.612 141.996 266.082 145.236C264.552 148.476 263.742 152.436 263.652 157.116C263.652 161.886 264.372 165.936 265.812 169.266C267.342 172.596 269.547 175.161 272.427 176.961ZM357.813 151.041V182.841L369.693 170.917V149.556C369.693 142.086 367.758 136.191 363.888 131.871C360.108 127.551 354.888 125.391 348.228 125.391C344.088 125.391 340.443 126.291 337.293 128.091C334.233 129.891 331.713 132.681 329.733 136.461V126.741L317.853 138.512V195.709L329.733 183.841V151.041C329.733 148.071 330.363 145.461 331.623 143.211C332.883 140.871 334.638 139.071 336.888 137.811C339.228 136.551 341.928 135.921 344.988 135.921C349.218 135.921 352.413 137.226 354.573 139.836C356.733 142.356 357.813 146.091 357.813 151.041ZM375.046 176.917L382.69 169.401C384.13 171.381 385.705 173.181 387.415 174.801C389.125 176.421 391.015 177.681 393.085 178.581C395.245 179.481 397.54 179.931 399.97 179.931C402.94 179.931 405.235 179.256 406.855 177.906C408.565 176.556 409.42 174.711 409.42 172.371C409.42 170.301 408.745 168.546 407.395 167.106C406.045 165.666 404.29 164.451 402.13 163.461C400.06 162.471 397.765 161.526 395.245 160.626C392.455 159.546 389.71 158.286 387.01 156.846C384.31 155.316 382.015 153.336 380.125 150.906C378.325 148.476 377.425 145.461 377.425 141.861C377.425 138.171 378.37 135.111 380.26 132.681C382.24 130.161 384.805 128.316 387.955 127.146C391.105 125.976 394.39 125.391 397.81 125.391C401.23 125.391 404.38 125.931 407.26 127.011C410.23 128.001 412.84 129.396 415.09 131.196C416.905 132.523 418.576 134.17 419.796 135.875L412.12 143.616C410.32 141.186 408.115 139.206 405.505 137.676C402.895 136.146 399.97 135.381 396.73 135.381C394.57 135.381 392.68 135.876 391.06 136.866C389.53 137.856 388.765 139.341 388.765 141.321C388.765 142.851 389.395 144.246 390.655 145.506C391.915 146.766 393.535 147.891 395.515 148.881C397.495 149.781 399.61 150.681 401.86 151.581C405.46 153.021 408.7 154.596 411.58 156.306C414.55 157.926 416.89 159.906 418.6 162.246C420.4 164.586 421.3 167.601 421.3 171.291C421.3 176.781 419.32 181.326 415.36 184.926C411.49 188.526 406.27 190.326 399.7 190.326C395.56 190.326 391.78 189.606 388.36 188.166C385.03 186.726 382.15 184.881 379.72 182.631C377.844 180.755 376.286 178.85 375.046 176.917ZM427.537 133.741V195.841L439.282 184.219V122.04L427.537 133.741ZM460.439 146.586C458.639 149.826 457.739 153.561 457.739 157.791C457.739 162.021 458.639 165.756 460.439 168.996C462.239 172.236 464.669 174.801 467.729 176.691C470.879 178.491 474.434 179.391 478.394 179.391C481.634 179.391 484.694 178.896 487.574 177.906C490.454 176.916 492.929 175.566 494.999 173.856C495.201 173.697 495.397 173.536 495.588 173.374L478.775 190.188C478.603 190.19 478.431 190.191 478.259 190.191C472.139 190.191 466.604 188.796 461.654 186.006C456.794 183.216 452.924 179.391 450.044 174.531C447.164 169.581 445.724 164.001 445.724 157.791C445.724 151.491 447.164 145.911 450.044 141.051C452.924 136.191 456.794 132.366 461.654 129.576C466.604 126.786 472.139 125.391 478.259 125.391C482.489 125.391 486.584 126.066 490.544 127.416C494.504 128.766 497.564 130.656 499.724 133.086L492.709 140.083C491.171 139.127 489.459 138.324 487.574 137.676C484.694 136.686 481.634 136.191 478.394 136.191C474.434 136.191 470.879 137.091 467.729 138.891C464.669 140.691 462.239 143.256 460.439 146.586ZM508.843 169.401L501.2 176.917C502.439 178.85 503.997 180.755 505.873 182.631C508.303 184.881 511.183 186.726 514.513 188.166C517.933 189.606 521.713 190.326 525.853 190.326C532.423 190.326 537.643 188.526 541.513 184.926C545.473 181.326 547.453 176.781 547.453 171.291C547.453 167.601 546.553 164.586 544.753 162.246C543.043 159.906 540.703 157.926 537.733 156.306C534.853 154.596 531.613 153.021 528.013 151.581C525.763 150.681 523.648 149.781 521.668 148.881C519.688 147.891 518.068 146.766 516.808 145.506C515.548 144.246 514.918 142.851 514.918 141.321C514.918 139.341 515.683 137.856 517.213 136.866C518.833 135.876 520.723 135.381 522.883 135.381C526.123 135.381 529.048 136.146 531.658 137.676C534.268 139.206 536.473 141.186 538.273 143.616L545.949 135.875C544.73 134.17 543.059 132.523 541.243 131.196C538.993 129.396 536.383 128.001 533.413 127.011C530.533 125.931 527.383 125.391 523.963 125.391C520.543 125.391 517.258 125.976 514.108 127.146C510.958 128.316 508.393 130.161 506.413 132.681C504.523 135.111 503.578 138.171 503.578 141.861C503.578 145.461 504.478 148.476 506.278 150.906C508.168 153.336 510.463 155.316 513.163 156.846C515.863 158.286 518.608 159.546 521.398 160.626C523.918 161.526 526.213 162.471 528.283 163.461C530.443 164.451 532.198 165.666 533.548 167.106C534.898 168.546 535.573 170.301 535.573 172.371C535.573 174.711 534.718 176.556 533.008 177.906C531.388 179.256 529.093 179.931 526.123 179.931C523.693 179.931 521.398 179.481 519.238 178.581C517.168 177.681 515.278 176.421 513.568 174.801C511.858 173.181 510.283 171.381 508.843 169.401Z" fill="#4346F0"/>
</mask>
<g mask="url(#mask0_3_45)">
<rect x="91.9564" y="57.8414" width="469.224" height="169.037" fill="#4346F0"/>
<path d="M152.016 56.2471L69.203 139.06V56.2471H152.016Z" fill="black"/>
<path d="M200.809 92.0191L140.165 152.664V92.0191H200.809Z" fill="black"/>
<path d="M269.901 82.0191L209.257 142.664V82.0191H269.901Z" fill="black"/>
<path d="M311.932 107.366L251.287 168.01V107.366H311.932Z" fill="black"/>
<path d="M374.437 108.366L313.792 169.01V108.366H374.437Z" fill="black"/>
<path d="M438.718 108.454L378.074 169.098V108.454H438.718Z" fill="black"/>
<path d="M500.446 74.4621L424.169 150.739V74.4621H500.446Z" fill="black"/>
<path d="M499.685 114.321L443.643 170.362V114.321H499.685Z" fill="black"/>
<path d="M505.422 208.892L561.464 152.851V208.892H505.422Z" fill="#39E2B7"/>
<path d="M251.927 199.821L288.282 163.466V199.821H251.927Z" fill="#39E2B7"/>
<path d="M547.453 111.957L496.139 163.272V111.957H547.453Z" fill="black"/>
</g>
<mask id="mask1_3_45" style="mask-type:alpha" maskUnits="userSpaceOnUse" x="146" y="21" width="320" height="249">
<path fill-rule="evenodd" clip-rule="evenodd" d="M458.177 32.5706C468.136 43.6302 459.651 69.3624 437.947 101.828C461.826 67.675 471.438 40.1481 460.897 28.0216C440.847 4.95637 355.474 46.3419 270.213 120.459C231.227 154.349 199.014 189.214 177.449 219.282L177.449 234.705C198.263 203.306 231.602 165.476 272.678 128.491C355.599 53.8284 438.65 10.8834 458.177 32.5706Z" fill="black"/>
<path fill-rule="evenodd" clip-rule="evenodd" d="M177.901 192.303L174.399 222.881L155.49 210.131L169.832 227.111L146.933 230.66L169.862 233.319L154.522 251.482L174.317 238.134L178.226 269.882L181.852 238.214L201.157 251.231L186.661 234.068L211.898 230.156L186.71 227.235L201.157 210.131L181.71 223.244L177.901 192.303Z" fill="black"/>
<path fill-rule="evenodd" clip-rule="evenodd" d="M419.935 109.706L430.337 111.192L431.754 121.116L433.4 111.243L444.161 109.706L433.5 107.93L431.754 97.4518L430.25 107.987L419.935 109.706Z" fill="black"/>
<path fill-rule="evenodd" clip-rule="evenodd" d="M418.311 121.24L421.383 121.679L421.801 124.609L422.287 121.694L425.465 121.24L422.317 120.716L421.801 117.622L421.357 120.733L418.311 121.24Z" fill="black"/>
<path fill-rule="evenodd" clip-rule="evenodd" d="M435.487 97.6814L441.139 98.4886L441.909 103.881L442.804 98.5165L448.651 97.6814L442.858 96.716L441.909 91.0224L441.092 96.7473L435.487 97.6814Z" fill="black"/>
</mask>
<g mask="url(#mask1_3_45)">
<path d="M557.808 8.96011L229.559 337.209V8.96011H557.808Z" fill="#01CEBF"/>
<path d="M435.181 8.96011L106.933 337.209V8.96011H435.181Z" fill="#007AC5"/>
<path d="M65.435 8.96011V337.209L229.559 337.209L229.559 173.084L393.684 8.96011H65.435Z" fill="#3220BD"/>
</g>
</svg>
