<svg width="471" height="406" viewBox="0 0 471 406" fill="none" xmlns="http://www.w3.org/2000/svg">
<path d="M60.4651 298.525H63.4754L52.5845 371.131H49.5742L60.4651 298.525Z" fill="white" fill-opacity="0.75"/>
<path d="M99.1963 303.062C99.9371 298.125 78.0157 298.521 66.1806 298.521L61.793 327.767C73.1146 327.106 95.5637 327.083 94.7851 332.263C94.3993 334.835 92.9084 334.738 92.7167 336.023C92.2008 339.464 116.789 337.917 120.256 337.559L112.825 322.984L124.615 308.29C118.685 308.908 96.6239 309.97 97.0877 306.884C97.3339 305.237 98.9053 305.003 99.1963 303.062Z" fill="white" fill-opacity="0.75"/>
<path d="M220.589 190.986L207.583 247.435C204.104 244.269 198.78 242.253 192.816 242.27C182.354 242.312 173.889 248.593 173.914 256.311C173.939 264.028 182.447 270.251 192.909 270.217C201.973 270.217 209.52 265.473 211.365 259.2V259.141C211.449 258.83 211.508 258.519 211.575 258.2L219.384 223.527C233.114 226.584 240.381 230.502 241.184 235.283C241.975 240.119 240.959 245.076 238.328 249.215C246.089 244.736 250.354 238.167 251.124 229.506C251.893 220.845 241.715 208.005 220.589 190.986Z" fill="#FBA6CF" fill-opacity="0.75"/>
<path d="M470.614 15.5744C470.614 17.687 468.833 19.4666 466.72 19.4666C464.607 19.4666 462.827 17.687 462.827 15.5744C462.827 13.4619 464.607 11.6822 466.72 11.6822C468.834 11.6822 470.614 13.35 470.614 15.5744ZM398.972 11.3483C396.859 11.3483 395.079 13.1279 395.079 15.2405C395.079 17.3531 396.859 19.1327 398.972 19.1327C401.085 19.1327 402.865 17.3531 402.865 15.2405C402.866 13.1279 401.086 11.3483 398.972 11.3483ZM432.567 1.33936C430.454 1.33936 428.674 3.11897 428.674 5.23153C428.674 7.34414 430.454 9.12371 432.567 9.12371C434.68 9.12371 436.46 7.3441 436.46 5.23153C436.46 3.11801 434.792 1.33936 432.567 1.33936ZM408.316 47.6044L409.763 52.7204H454.593L456.373 47.6044H408.316ZM463.048 18.7994C459.487 22.0247 453.592 26.2508 447.696 26.2508C440.687 26.2508 435.793 15.4629 433.679 10.013C433.345 10.124 432.9 10.124 432.567 10.124C432.233 10.124 431.9 10.124 431.566 10.013C429.564 15.4629 424.336 26.2508 416.659 26.2508C410.319 26.2508 405.089 22.1357 402.086 19.0223C401.53 19.4672 400.974 19.6892 400.306 19.9121L407.204 43.7104H457.706L465.049 20.1329C464.27 19.9099 463.603 19.465 463.047 18.7981L463.048 18.7994Z" fill="#FFFFC7" fill-opacity="0.75"/>
<path fill-rule="evenodd" clip-rule="evenodd" d="M291.05 126.024C289.098 127.977 289.098 131.143 291.05 133.095L325.763 167.807C327.715 169.76 330.881 169.76 332.834 167.807L367.546 133.095C369.498 131.143 369.498 127.977 367.546 126.024L332.834 91.3121C330.881 89.3595 327.715 89.3595 325.763 91.3121L291.05 126.024ZM316.763 126.024C314.811 127.977 314.811 131.143 316.763 133.095L325.763 142.095C327.715 144.047 330.881 144.047 332.834 142.095L341.833 133.095C343.786 131.143 343.786 127.977 341.833 126.024L332.834 117.025C330.881 115.072 327.715 115.072 325.763 117.025L316.763 126.024Z" fill="white" fill-opacity="0.75"/>
</svg>
