<?xml version="1.0" encoding="UTF-8"?>
<svg width="29px" height="80px" viewBox="0 0 29 80" version="1.1" xmlns="http://www.w3.org/2000/svg" xmlns:xlink="http://www.w3.org/1999/xlink">
    <title>left-chevron</title>
    <g id="left-chevron" stroke="none" stroke-width="1" fill="none" fill-rule="evenodd">
        <path d="M17.4375017,3.67050726 L0.823855651,36.897789 C0.0364227789,38.469196 0.0364227789,40.3225874 0.824962748,41.8962061 L17.4352099,75.1167027 C18.3106625,76.8981661 20.0912798,78.0847735 22.0916942,78.2082329 C24.0921087,78.3316922 26.0051245,77.3730445 27.1036085,75.6966695 L27.2413095,75.4754683 C28.2101739,73.8351625 28.2777127,71.8060259 27.4055847,70.0988088 L12.055,39.395 L27.4112705,8.66522621 C28.7510645,5.97944397 27.7262012,2.73247889 25.1197253,1.28880975 L24.9161208,1.18135493 C22.1632726,-0.19189395 18.8182937,0.921434833 17.4375017,3.67050726 Z" id="Path" fill="#FFFFFF" fill-rule="nonzero"></path>
        <path d="M23.6606554,3.69809149 C25.0243696,4.38305186 25.5766512,6.04237339 24.8954328,7.40796059 L8.9097729,39.3958917 L24.9009699,71.3782856 C25.3532657,72.2636685 25.2960883,73.3235911 24.7511706,74.1551794 C24.2062529,74.9867676 23.2572758,75.4623177 22.2649434,75.401074 C21.2726111,75.3398303 20.389312,74.7511978 19.9507863,73.8589145 L3.33943213,40.6362061 C2.94826632,39.8555915 2.94826632,38.9361919 3.33943213,38.1555772 L19.9507863,4.93286882 C20.6357467,3.56915465 22.2950682,3.016873 23.6606554,3.69809149 Z" id="Path" fill="#EC6198" fill-rule="nonzero"></path>
    </g>
</svg>