<svg width="160" height="40" viewBox="0 0 160 40" fill="none" xmlns="http://www.w3.org/2000/svg">
    <g clip-path="url(#clip0_203_201)">
    <mask id="path-1-inside-1_203_201" fill="white">
    <path fill-rule="evenodd" clip-rule="evenodd" d="M7.00354 0C2.49856 0 -0.833486 4.19361 0.184656 8.58203L3.92283 24.6944C4.65882 27.8666 7.48519 30.1124 10.7417 30.1124H21.8569V39.9999L49.3511 30.1124H149.259C152.516 30.1124 155.342 27.8666 156.078 24.6944L159.816 8.58203C160.835 4.19361 157.502 0 152.998 0H7.00354Z"/>
    </mask>
    <path fill-rule="evenodd" clip-rule="evenodd" d="M7.00354 0C2.49856 0 -0.833486 4.19361 0.184656 8.58203L3.92283 24.6944C4.65882 27.8666 7.48519 30.1124 10.7417 30.1124H21.8569V39.9999L49.3511 30.1124H149.259C152.516 30.1124 155.342 27.8666 156.078 24.6944L159.816 8.58203C160.835 4.19361 157.502 0 152.998 0H7.00354Z" fill="#EC61A7"/>
    <path d="M0.184656 8.58203L-1.7636 9.03404L-1.7636 9.03404L0.184656 8.58203ZM3.92283 24.6944L5.87108 24.2424L5.87108 24.2424L3.92283 24.6944ZM21.8569 30.1124H23.8569V28.1124H21.8569V30.1124ZM21.8569 39.9999H19.8569V42.8446L22.5337 41.8819L21.8569 39.9999ZM49.3511 30.1124V28.1124H49.0024L48.6743 28.2304L49.3511 30.1124ZM156.078 24.6944L154.13 24.2424L154.13 24.2424L156.078 24.6944ZM159.816 8.58203L157.868 8.13002L157.868 8.13002L159.816 8.58203ZM2.13291 8.13002C1.40566 4.99544 3.7857 2 7.00354 2V-2C1.21143 -2 -3.07264 3.39179 -1.7636 9.03404L2.13291 8.13002ZM5.87108 24.2424L2.13291 8.13002L-1.7636 9.03404L1.97458 25.1464L5.87108 24.2424ZM10.7417 28.1124C8.41562 28.1124 6.39679 26.5083 5.87108 24.2424L1.97458 25.1464C2.92084 29.225 6.55475 32.1124 10.7417 32.1124V28.1124ZM21.8569 28.1124H10.7417V32.1124H21.8569V28.1124ZM23.8569 39.9999V30.1124H19.8569V39.9999H23.8569ZM48.6743 28.2304L21.1801 38.1179L22.5337 41.8819L50.0279 31.9944L48.6743 28.2304ZM149.259 28.1124H49.3511V32.1124H149.259V28.1124ZM154.13 24.2424C153.604 26.5083 151.585 28.1124 149.259 28.1124V32.1124C153.446 32.1124 157.08 29.225 158.026 25.1464L154.13 24.2424ZM157.868 8.13002L154.13 24.2424L158.026 25.1464L161.765 9.03404L157.868 8.13002ZM152.998 2C156.215 2 158.595 4.99544 157.868 8.13002L161.765 9.03404C163.074 3.39179 158.79 -2 152.998 -2V2ZM7.00354 2H152.998V-2H7.00354V2Z" fill="white" mask="url(#path-1-inside-1_203_201)"/>
    </g>
    <defs>
    <clipPath id="clip0_203_201">
    <rect width="160" height="40" fill="white"/>
    </clipPath>
    </defs>
    </svg>
    