<svg width="198" height="135" viewBox="0 0 198 135" fill="none" xmlns="http://www.w3.org/2000/svg">
<path d="M198 37.4017C198 42.9524 193.334 47.6281 187.795 47.6281C182.255 47.6281 177.589 42.9523 177.589 37.4017C177.589 31.851 182.256 27.1752 187.795 27.1752C193.334 27.1752 198 31.557 198 37.4017ZM10.2053 26.2978C4.66602 26.2978 0 30.9736 0 36.5243C0 42.075 4.66615 46.7507 10.2053 46.7507C15.7444 46.7507 20.4106 42.0749 20.4106 36.5243C20.413 30.9735 15.7468 26.2978 10.2053 26.2978ZM98.2685 0C92.7292 0 88.0632 4.67581 88.0632 10.2264C88.0632 15.7772 92.7293 20.4528 98.2685 20.4528C103.808 20.4528 108.474 15.777 108.474 10.2264C108.474 4.67328 104.101 0 98.2685 0ZM34.6994 121.558L38.4901 135H156.004L160.67 121.558H34.6994ZM178.167 45.8751C168.835 54.3492 153.381 65.4531 137.925 65.4531C119.554 65.4531 106.724 37.1086 101.183 22.7895C100.307 23.0811 99.1408 23.0811 98.2676 23.0811C97.3921 23.0811 96.519 23.0811 95.6435 22.7895C90.3953 37.1086 76.6904 65.4531 56.568 65.4531C39.948 65.4531 26.2403 54.6411 18.3681 46.4607C16.9105 47.6296 15.4529 48.2129 13.702 48.7986L31.7819 111.327H164.166L183.413 49.3786C181.371 48.7929 179.622 47.6239 178.165 45.8717L178.167 45.8751Z" fill="#C1BDCC"/>
<path d="M71.9007 119V107.92L97.7884 83.9502C99.9901 81.8195 101.837 79.9019 103.328 78.1974C104.843 76.4928 105.992 74.8238 106.773 73.1903C107.554 71.5331 107.945 69.7457 107.945 67.828C107.945 65.6974 107.459 63.8626 106.489 62.3238C105.518 60.7613 104.192 59.5657 102.511 58.7371C100.831 57.8849 98.9248 57.4587 96.7941 57.4587C94.5687 57.4587 92.6275 57.9085 90.9703 58.8082C89.3131 59.7078 88.0347 60.998 87.135 62.6789C86.2354 64.3598 85.7856 66.3602 85.7856 68.6803H71.1904C71.1904 63.9218 72.2676 59.7906 74.422 56.2868C76.5763 52.7831 79.5948 50.0724 83.4774 48.1547C87.3599 46.2371 91.8344 45.2783 96.9007 45.2783C102.109 45.2783 106.643 46.2016 110.502 48.0482C114.384 49.8711 117.403 52.4043 119.557 55.6476C121.711 58.891 122.788 62.6079 122.788 66.7982C122.788 69.5444 122.244 72.2551 121.155 74.9303C120.09 77.6055 118.184 80.5766 115.438 83.8437C112.691 87.087 108.821 90.9814 103.825 95.5269L93.2075 105.932V106.429H123.747V119H71.9007Z" fill="white"/>
<path fill-rule="evenodd" clip-rule="evenodd" d="M71.9007 124C69.1392 124 66.9007 121.761 66.9007 119V107.92C66.9007 106.528 67.4816 105.198 68.5036 104.252L94.3506 80.3192C96.4671 78.2694 98.1987 76.4668 99.5653 74.9048L99.5912 74.8755C100.868 73.4393 101.722 72.1592 102.257 71.0435C102.705 70.0882 102.945 69.0375 102.945 67.828C102.945 66.4772 102.646 65.6032 102.26 64.9913L102.242 64.9622C101.774 64.2089 101.16 63.6455 100.301 63.2218C100.284 63.2135 100.267 63.2051 100.25 63.1966C99.357 62.7437 98.2426 62.4587 96.7941 62.4587C95.2517 62.4587 94.1591 62.7663 93.3557 63.2024C92.5672 63.6305 91.9874 64.2086 91.5434 65.0383C91.1078 65.852 90.7856 67.0065 90.7856 68.6803C90.7856 71.4417 88.547 73.6803 85.7856 73.6803H71.1904C68.429 73.6803 66.1904 71.4417 66.1904 68.6803C66.1904 63.1448 67.4521 58.0764 70.1627 53.668C72.8364 49.3196 76.5838 45.9829 81.2632 43.6717C85.9422 41.3608 91.1965 40.2783 96.9007 40.2783C102.689 40.2783 107.984 41.3041 112.643 43.53C117.259 45.7006 121.014 48.8045 123.722 52.8812C126.463 57.0075 127.788 61.7022 127.788 66.7982C127.788 70.2178 127.108 73.5612 125.793 76.7981C124.458 80.1417 122.201 83.5687 119.265 87.0609L119.253 87.0746C116.324 90.5345 112.301 94.5712 107.259 99.1624L104.946 101.429H123.747C126.509 101.429 128.747 103.667 128.747 106.429V119C128.747 121.761 126.509 124 123.747 124H71.9007ZM93.2075 106.429V105.932L103.825 95.5269C108.821 90.9815 112.691 87.087 115.438 83.8437C118.184 80.5766 120.09 77.6055 121.155 74.9303C122.244 72.2551 122.788 69.5444 122.788 66.7982C122.788 62.6079 121.711 58.891 119.557 55.6476C117.403 52.4043 114.384 49.8711 110.502 48.0482C106.643 46.2016 102.109 45.2783 96.9007 45.2783C91.8344 45.2783 87.3599 46.2371 83.4774 48.1547C79.5948 50.0724 76.5763 52.7831 74.422 56.2868C73.0607 58.5008 72.1294 60.9653 71.6283 63.6803C71.3364 65.262 71.1904 66.9286 71.1904 68.6803H85.7856C85.7856 66.3602 86.2354 64.3598 87.135 62.6789C88.0347 60.998 89.3131 59.7078 90.9703 58.8082C92.6275 57.9085 94.5687 57.4587 96.7941 57.4587C98.9248 57.4587 100.831 57.8849 102.511 58.7371C104.192 59.5657 105.518 60.7613 106.489 62.3238C107.459 63.8626 107.945 65.6974 107.945 67.828C107.945 69.7457 107.554 71.5331 106.773 73.1903C105.992 74.8238 104.843 76.4928 103.328 78.1974C101.837 79.9019 99.9901 81.8195 97.7884 83.9502L71.9007 107.92V119H123.747V106.429H93.2075Z" fill="#A6A0BA"/>
</svg>
