<svg width="198" height="135" viewBox="0 0 198 135" fill="none" xmlns="http://www.w3.org/2000/svg">
<path d="M198 37.4017C198 42.9524 193.334 47.6281 187.795 47.6281C182.255 47.6281 177.589 42.9523 177.589 37.4017C177.589 31.851 182.256 27.1752 187.795 27.1752C193.334 27.1752 198 31.557 198 37.4017ZM10.2053 26.2978C4.66602 26.2978 0 30.9736 0 36.5243C0 42.075 4.66615 46.7507 10.2053 46.7507C15.7444 46.7507 20.4106 42.0749 20.4106 36.5243C20.413 30.9735 15.7468 26.2978 10.2053 26.2978ZM98.2685 0C92.7292 0 88.0632 4.67581 88.0632 10.2264C88.0632 15.7772 92.7293 20.4528 98.2685 20.4528C103.808 20.4528 108.474 15.777 108.474 10.2264C108.474 4.67328 104.101 0 98.2685 0ZM34.6994 121.558L38.4901 135H156.004L160.67 121.558H34.6994ZM178.167 45.8751C168.835 54.3492 153.381 65.4531 137.925 65.4531C119.554 65.4531 106.724 37.1086 101.183 22.7895C100.307 23.0811 99.1408 23.0811 98.2676 23.0811C97.3921 23.0811 96.519 23.0811 95.6435 22.7895C90.3953 37.1086 76.6904 65.4531 56.568 65.4531C39.948 65.4531 26.2403 54.6411 18.3681 46.4607C16.9105 47.6296 15.4529 48.2129 13.702 48.7986L31.7819 111.327H164.166L183.413 49.3786C181.371 48.7929 179.622 47.6239 178.165 45.8717L178.167 45.8751Z" fill="#BE8C68"/>
<path d="M96.8179 119.994C91.5149 119.994 86.7919 119.083 82.6489 117.26C78.5296 115.413 75.2744 112.88 72.8833 109.66C70.5158 106.417 69.2966 102.677 69.2256 98.4388H84.7085C84.8032 100.214 85.3833 101.777 86.4486 103.126C87.5376 104.452 88.9817 105.482 90.781 106.216C92.5802 106.95 94.6044 107.317 96.8534 107.317C99.1972 107.317 101.269 106.902 103.068 106.074C104.867 105.245 106.276 104.097 107.294 102.629C108.312 101.161 108.821 99.4687 108.821 97.551C108.821 95.6098 108.276 93.8934 107.187 92.4019C106.122 90.8867 104.583 89.703 102.571 88.8508C100.582 87.9985 98.2147 87.5724 95.4685 87.5724H88.6858V76.2797H95.4685C97.7886 76.2797 99.8364 75.8773 101.612 75.0724C103.411 74.2674 104.808 73.1547 105.802 71.7343C106.797 70.2902 107.294 68.6093 107.294 66.6917C107.294 64.8688 106.856 63.2707 105.98 61.8976C105.128 60.5009 103.92 59.4118 102.358 58.6306C100.819 57.8493 99.0196 57.4587 96.96 57.4587C94.8766 57.4587 92.9709 57.8375 91.2426 58.5951C89.5144 59.329 88.1295 60.3825 87.0878 61.7556C86.0461 63.1287 85.4898 64.7385 85.4188 66.5851H70.6816C70.7526 62.3948 71.9481 58.7016 74.2682 55.5056C76.5883 52.3096 79.7133 49.8119 83.6432 48.0127C87.5968 46.1898 92.0594 45.2783 97.031 45.2783C102.05 45.2783 106.441 46.1898 110.206 48.0127C113.97 49.8356 116.894 52.2977 118.977 55.3991C121.084 58.4767 122.126 61.9332 122.102 65.7684C122.126 69.8403 120.859 73.2376 118.302 75.9601C115.769 78.6827 112.467 80.4109 108.395 81.1448V81.713C113.745 82.3995 117.817 84.258 120.611 87.2883C123.428 90.2949 124.825 94.0591 124.801 98.5809C124.825 102.724 123.629 106.405 121.214 109.625C118.823 112.845 115.521 115.378 111.307 117.224C107.093 119.071 102.263 119.994 96.8179 119.994Z" fill="white"/>
<path fill-rule="evenodd" clip-rule="evenodd" d="M80.6352 121.836L80.6036 121.822C75.8033 119.671 71.8319 116.631 68.8691 112.642L68.8447 112.608C65.8346 108.484 64.3136 103.731 64.2263 98.5226C64.2038 97.1822 64.7206 95.8889 65.6606 94.9331C66.6005 93.9772 67.885 93.4388 69.2256 93.4388H84.7085C87.3665 93.4388 89.5599 95.5184 89.7014 98.1725C89.7421 98.9351 89.9599 99.4912 90.3441 99.991C90.8386 100.58 91.56 101.134 92.6694 101.586C93.7824 102.04 95.1511 102.317 96.8534 102.317C98.6059 102.317 99.9423 102.008 100.976 101.532C102.055 101.036 102.73 100.435 103.185 99.7797C103.579 99.2113 103.821 98.5291 103.821 97.551C103.821 96.6119 103.58 95.9403 103.149 95.3504C103.132 95.3263 103.114 95.3021 103.097 95.2778C102.66 94.6558 101.929 94.0089 100.621 93.4549L100.601 93.4465C99.3782 92.9224 97.7131 92.5724 95.4685 92.5724H88.6858C85.9244 92.5724 83.6858 90.3338 83.6858 87.5724V76.2797C83.6858 73.5183 85.9244 71.2797 88.6858 71.2797H95.4685C97.2099 71.2797 98.5319 70.9789 99.5475 70.5184L99.5701 70.5083C100.649 70.0256 101.287 69.4599 101.695 68.8831C102.055 68.3537 102.294 67.6861 102.294 66.6917C102.294 65.7044 102.068 65.0631 101.765 64.5867C101.751 64.566 101.738 64.5452 101.725 64.5244C101.721 64.5169 101.716 64.5094 101.712 64.502C101.381 63.9608 100.904 63.494 100.122 63.1027L100.094 63.0889C99.3801 62.7264 98.3841 62.4587 96.96 62.4587C95.4953 62.4587 94.2823 62.7219 93.25 63.1744C93.2324 63.1822 93.2147 63.1898 93.197 63.1973C92.1975 63.6217 91.5395 64.1603 91.0713 64.7775C90.695 65.2735 90.4497 65.8775 90.4151 66.7773C90.3118 69.462 88.1054 71.5851 85.4188 71.5851H70.6816C69.3408 71.5851 68.0562 71.0467 67.1162 70.0906C66.1762 69.1345 65.6595 67.841 65.6823 66.5004C65.7696 61.3503 67.2611 56.647 70.2219 52.5683C73.0932 48.613 76.9218 45.5919 81.5557 43.4693C86.2513 41.3055 91.4415 40.2783 97.031 40.2783C102.656 40.2783 107.819 41.3014 112.385 43.5126C116.842 45.671 120.482 48.6802 123.115 52.5928C125.801 56.5233 127.126 60.9651 127.102 65.7693C127.126 70.9806 125.46 75.6379 121.955 79.3745C121.508 79.8548 121.043 80.31 120.562 80.7404C121.916 81.6331 123.158 82.6771 124.273 83.8843C128.038 87.9097 129.825 92.9326 129.801 98.5791C129.825 103.765 128.301 108.505 125.221 112.616C122.24 116.626 118.201 119.662 113.313 121.804C108.361 123.974 102.829 124.994 96.8179 124.994C90.9392 124.994 85.5123 123.982 80.6352 121.836ZM121.214 109.625C123.629 106.405 124.825 102.724 124.801 98.5809C124.825 94.0591 123.428 90.2949 120.611 87.2883C119.333 85.9025 117.788 84.7617 115.976 83.8661C113.851 82.8161 111.359 82.1029 108.499 81.7266C108.465 81.722 108.43 81.7175 108.395 81.713V81.1448C108.42 81.1403 108.444 81.1358 108.469 81.1312C111.194 80.6309 113.572 79.6835 115.604 78.2889C116.584 77.6166 117.483 76.8403 118.302 75.9601C120.859 73.2376 122.126 69.8403 122.102 65.7684C122.126 61.9332 121.084 58.4767 118.977 55.3991C116.894 52.2977 113.97 49.8356 110.206 48.0127C106.441 46.1898 102.05 45.2783 97.031 45.2783C92.0594 45.2783 87.5968 46.1898 83.6432 48.0127C79.7133 49.8119 76.5883 52.3096 74.2682 55.5056C72.9191 57.364 71.9503 59.3905 71.3616 61.5851C70.938 63.1647 70.7113 64.8314 70.6816 66.5851H85.4188C85.4898 64.7385 86.0461 63.1287 87.0878 61.7556C88.1295 60.3825 89.5144 59.329 91.2426 58.5951C92.9709 57.8375 94.8766 57.4587 96.96 57.4587C99.0196 57.4587 100.819 57.8493 102.358 58.6306C103.92 59.4118 105.128 60.5009 105.98 61.8976C106.856 63.2707 107.294 64.8688 107.294 66.6917C107.294 68.6093 106.797 70.2902 105.802 71.7343C104.808 73.1547 103.411 74.2674 101.612 75.0724C99.8364 75.8773 97.7886 76.2797 95.4685 76.2797H88.6858V87.5724H95.4685C98.2147 87.5724 100.582 87.9985 102.571 88.8508C104.583 89.703 106.122 90.8867 107.187 92.4019C108.276 93.8934 108.821 95.6098 108.821 97.551C108.821 99.4687 108.312 101.161 107.294 102.629C106.276 104.097 104.867 105.245 103.068 106.074C101.269 106.902 99.1972 107.317 96.8534 107.317C94.6044 107.317 92.5802 106.95 90.781 106.216C88.9817 105.482 87.5376 104.452 86.4486 103.126C85.3833 101.777 84.8032 100.214 84.7085 98.4388H69.2256C69.2549 100.19 69.4805 101.857 69.9022 103.439C70.5007 105.684 71.4944 107.758 72.8833 109.66C75.2744 112.88 78.5296 115.413 82.6489 117.26C86.7919 119.083 91.5149 119.994 96.8179 119.994C102.263 119.994 107.093 119.071 111.307 117.224C115.521 115.378 118.823 112.845 121.214 109.625Z" fill="#A3724F"/>
</svg>
