<svg width="712" height="414" viewBox="0 0 712 414" fill="none" xmlns="http://www.w3.org/2000/svg">
<path d="M134.007 146.681V141.672C148.948 141.672 161.748 130.879 163.764 116.629L179.932 1.89526H185.017L168.736 117.268C166.331 134.047 151.403 146.681 134.007 146.681Z" fill="#005286"/>
<path d="M122.021 123.09C119.05 123.182 116.095 122.612 113.372 121.421C110.648 120.229 108.224 118.447 106.274 116.203C104.325 113.959 102.899 111.31 102.1 108.447C101.302 105.584 101.151 102.579 101.657 99.6501L112.528 22.7434C113.578 16.5026 116.766 10.8211 121.546 6.67255C126.326 2.524 132.401 0.166648 138.728 0.00443668C141.695 -0.0573364 144.639 0.526599 147.358 1.71577C150.076 2.90494 152.503 4.67089 154.471 6.89123C156.388 9.15424 157.791 11.8064 158.582 14.6644C159.373 17.5224 159.535 20.5181 159.055 23.4446L148.171 100.351C146.431 112.885 134.683 123.09 122.021 123.09ZM138.728 5.01302C133.588 5.1264 128.649 7.02962 124.762 10.3944C120.875 13.7592 118.285 18.3746 117.438 23.4446L106.617 100.351C106.209 102.57 106.306 104.852 106.9 107.029C107.495 109.205 108.572 111.219 110.052 112.923C111.532 114.626 113.376 115.974 115.448 116.867C117.52 117.76 119.767 118.175 122.021 118.082C127.149 117.949 132.071 116.038 135.944 112.675C139.817 109.312 142.4 104.708 143.25 99.6501L154.133 22.7434C154.496 20.5314 154.376 18.2671 153.782 16.1057C153.187 13.9444 152.132 11.9372 150.689 10.2219C149.192 8.53834 147.348 7.20039 145.282 6.30092C143.217 5.40144 140.981 4.96198 138.728 5.01302V5.01302Z" fill="#005286"/>
<path d="M234.124 6.79115L234.825 1.89526H209.201H205.056H204.129L187.221 121.4H188.724H192.294H217.918L218.632 116.391H193.008L200.334 64.6027H225.958L226.659 59.5941H201.048L208.512 6.79115H234.124Z" fill="#005286"/>
<path d="M334.053 1.89526H295.216L294.527 6.79115H312.311L296.092 121.4H301.177L317.371 6.79115H333.364L334.053 1.89526Z" fill="#005286"/>
<path d="M266.273 1.89526C261.661 2.01246 257.233 3.73111 253.751 6.75622C250.268 9.78132 247.947 13.9242 247.186 18.4737L234.838 105.473C234.539 107.556 234.693 109.679 235.29 111.697C235.886 113.715 236.911 115.581 238.294 117.168C239.717 118.844 241.475 120.203 243.455 121.159C245.435 122.114 247.594 122.644 249.791 122.715H250.042C258.032 122.715 264.632 115.74 269.016 111.095L265.384 107.689C261.551 111.733 255.778 117.844 249.879 117.706C248.392 117.655 246.933 117.295 245.594 116.648C244.255 116.001 243.065 115.082 242.101 113.95C241.183 112.902 240.501 111.668 240.104 110.332C239.706 108.997 239.601 107.591 239.797 106.211L252.146 19.2124C252.703 15.8314 254.415 12.7481 256.991 10.4878C259.567 8.22744 262.847 6.92991 266.273 6.81619H283.694L284.382 1.92031L266.273 1.89526Z" fill="#005286"/>
<path d="M46.439 6.99153C44.9924 5.35151 43.2051 4.04693 41.2021 3.16887C39.199 2.29082 37.0284 1.86046 34.8418 1.90782H16.9074L0 121.463H5.08474L13.1126 64.6528H26.6886C31.3091 64.5306 35.7425 62.8022 39.226 59.765C42.7095 56.7278 45.0254 52.5717 45.7752 48.0118L49.8455 19.2125C50.2035 17.0503 50.0841 14.836 49.4956 12.7249C48.9071 10.6138 47.8639 8.65693 46.439 6.99153V6.99153ZM44.886 18.4737L40.8032 47.273C40.2405 50.6383 38.5244 53.703 35.9492 55.9418C33.374 58.1806 30.1001 59.4542 26.6886 59.544H13.7764L21.2908 6.79119H34.8793C36.3518 6.75725 37.8134 7.05075 39.1585 7.65048C40.5037 8.25021 41.6988 9.1412 42.6575 10.2591C43.6162 11.3769 44.3145 12.6937 44.7021 14.1144C45.0897 15.535 45.1568 17.024 44.8985 18.4737H44.886Z" fill="#005286"/>
<path d="M94.0428 6.99153C92.5962 5.35151 90.809 4.04693 88.8059 3.16887C86.8028 2.29082 84.6322 1.86046 82.4456 1.90782H64.5363L47.5913 121.463H52.6009L60.7415 64.5902H73.2655L81.4061 120.461H86.4157L78.1499 64.1144C81.9913 63.226 85.4852 61.2244 88.1942 58.3601C90.9031 55.4958 92.7067 51.8961 93.3791 48.0118L97.4494 19.2125C97.8073 17.0503 97.6879 14.836 97.0994 12.7249C96.511 10.6138 95.4677 8.65693 94.0428 6.99153V6.99153ZM92.4899 18.4737L88.4196 47.273C87.8519 50.6383 86.1327 53.7019 83.5559 55.9401C80.9791 58.1784 77.7047 59.4523 74.2925 59.544H61.4554L68.8821 6.79119H82.4832C83.9556 6.75725 85.4172 7.05075 86.7624 7.65048C88.1075 8.25021 89.3026 9.1412 90.2613 10.2591C91.22 11.3769 91.9184 12.6937 92.306 14.1144C92.6935 15.535 92.7606 17.024 92.5024 18.4737H92.4899Z" fill="#005286"/>
<path d="M351.109 4H368L306.891 412H290L351.109 4Z" fill="url(#paint0_linear_502_47)"/>
<path d="M569.179 28.559C573.336 0.83121 450.12 3.04181 383.658 3.04181L359 167.255C422.62 163.558 548.773 163.443 544.387 192.543C542.232 207.007 533.86 206.436 532.773 213.677C529.874 232.982 668.042 224.368 687.513 222.272L645.767 140.442L712 57.9446C678.683 61.413 554.723 67.4731 557.317 50.036C558.824 40.7553 567.539 39.4404 569.179 28.559Z" fill="url(#paint1_linear_502_47)"/>
<path d="M495.966 48.3532C495.803 49.5627 495.212 50.6757 494.299 51.4939C493.386 52.3121 492.21 52.7825 490.979 52.8213C490.404 52.8274 489.835 52.7125 489.308 52.4844C488.781 52.2562 488.309 51.9199 487.923 51.4977C487.537 51.0755 487.246 50.5769 487.068 50.0349C486.891 49.4928 486.831 48.9197 486.894 48.3532C487.049 47.1406 487.638 46.0232 488.553 45.2036C489.467 44.384 490.648 43.9162 491.881 43.885C492.459 43.8664 493.035 43.9727 493.568 44.1966C494.1 44.4205 494.578 44.7567 494.966 45.1818C495.355 45.6069 495.646 46.1108 495.818 46.6584C495.991 47.206 496.041 47.7843 495.966 48.3532V48.3532ZM412.994 43.4858C411.765 43.5214 410.589 43.9911 409.678 44.8104C408.767 45.6296 408.181 46.7444 408.026 47.9539C407.961 48.521 408.018 49.0954 408.194 49.6388C408.371 50.1822 408.662 50.682 409.048 51.1049C409.435 51.5279 409.908 51.8641 410.437 52.0912C410.965 52.3184 411.536 52.4311 412.112 52.422C413.342 52.3903 414.52 51.9218 415.432 51.1019C416.344 50.2819 416.928 49.1649 417.079 47.9539C417.142 47.3858 417.082 46.811 416.903 46.2676C416.725 45.7242 416.432 45.2247 416.044 44.8022C415.655 44.3796 415.181 44.0437 414.652 43.8168C414.123 43.5898 413.551 43.477 412.975 43.4858H412.994ZM453.272 32.0778C452.039 32.1089 450.858 32.5767 449.944 33.3963C449.029 34.216 448.44 35.3333 448.285 36.5459C448.222 37.1124 448.282 37.6856 448.459 38.2276C448.637 38.7696 448.928 39.2682 449.314 39.6904C449.7 40.1127 450.172 40.449 450.699 40.6771C451.226 40.9053 451.795 41.0201 452.37 41.014C453.602 40.979 454.78 40.51 455.694 39.691C456.608 38.8721 457.198 37.757 457.357 36.5459C457.441 35.9719 457.398 35.3865 457.229 34.8309C457.061 34.2753 456.772 33.763 456.383 33.3299C455.993 32.8968 455.513 32.5535 454.976 32.3241C454.438 32.0946 453.857 31.9846 453.272 32.0017V32.0778ZM419.688 85.1249L420.781 91H472.95L475.597 85.1249H419.688ZM486.817 52.0418C482.291 55.7493 474.945 60.5977 468.078 60.5977C459.908 60.5977 455.458 48.2201 453.617 41.9647C453.189 42.0583 452.75 42.0967 452.313 42.0788C451.925 42.1078 451.536 42.0692 451.162 41.9647C448.189 48.2201 440.862 60.5977 431.982 60.5977C424.598 60.5977 418.978 55.8824 415.833 52.3079C415.175 52.7704 414.442 53.1177 413.665 53.3347L418.959 80.6568H477.783L489.042 53.5818C488.163 53.3301 487.398 52.7864 486.875 52.0418H486.817Z" fill="url(#paint2_linear_502_47)"/>
<path d="M292.404 146.659L275.612 265.316H280.662L297.454 146.659H292.404Z" fill="#005286"/>
<path d="M84.2277 265.515C81.6673 265.576 79.1232 265.092 76.7642 264.095C74.4051 263.098 72.2852 261.611 70.545 259.733C69.1854 258.197 68.1772 256.384 67.5908 254.419C67.0043 252.454 66.8536 250.385 67.1492 248.356L68.7787 237.675L74.2642 234.766L72.075 249.089C71.8717 250.402 71.9603 251.743 72.3343 253.017C72.7084 254.292 73.3588 255.468 74.2393 256.463C75.5123 257.811 77.0585 258.872 78.7745 259.576C80.4905 260.279 82.3369 260.608 84.1904 260.541V260.541C92.1761 260.541 99.4528 255.083 100.361 248.356L107.177 200.709L71.3908 219.683L79.3019 162.487C80.5458 153.411 90.0615 146.025 100.448 146.025C103.015 145.954 105.567 146.43 107.935 147.423C110.303 148.416 112.432 149.902 114.18 151.782C115.528 153.321 116.524 155.134 117.1 157.097C117.676 159.059 117.817 161.124 117.514 163.146L115.984 173.989L110.536 176.873L112.576 162.45C112.784 161.134 112.697 159.788 112.323 158.508C111.949 157.229 111.296 156.049 110.411 155.052C109.138 153.704 107.592 152.642 105.876 151.939C104.16 151.236 102.314 150.907 100.46 150.974V150.974C92.4746 150.974 85.1979 156.432 84.2899 163.146L77.6476 210.731L113.471 191.732L105.361 249.052C104.08 258.129 94.6017 265.515 84.2277 265.515Z" fill="#005286"/>
<path d="M218.965 146.659H213.355L179.895 210.98L189 146.659H183.95L167.157 265.316H172.207L177.805 225.776L191.002 200.411L206.675 265.316H211.8L194.498 193.696L218.965 146.659Z" fill="#005286"/>
<path d="M257.314 265.365H262.29L259.466 147.355V146.659H254.49L218.032 265.365H223.244L235.447 225.577H256.381L257.314 265.365ZM236.977 220.603L254.826 162.375L256.257 220.603H236.977Z" fill="#005286"/>
<path d="M167.269 151.508L167.953 146.659H142.503H138.386H137.466L120.673 265.316H122.166H125.723H151.161L151.87 260.342H126.42L133.697 208.916H159.147L159.843 203.942H134.406L141.819 151.508H167.269Z" fill="#005286"/>
<path d="M275.848 298.862L276.532 294.001H251.095H246.965H246.044L229.252 412.67H234.302L242.275 356.257H267.725L268.434 351.284H242.984L250.398 298.862H275.848Z" fill="#005286"/>
<path d="M234.688 294.001H196.115L195.431 298.862H213.094L196.986 412.67H202.036L218.119 298.862H234.004L234.688 294.001Z" fill="#005286"/>
<path d="M167.356 293.963C162.779 294.08 158.385 295.785 154.928 298.787C151.471 301.788 149.167 305.899 148.412 310.413L136.135 396.804C135.844 398.875 136 400.983 136.592 402.989C137.184 404.994 138.199 406.849 139.568 408.43C140.983 410.097 142.731 411.45 144.699 412.403C146.668 413.355 148.814 413.887 150.999 413.963H151.236C159.184 413.963 165.739 407.025 170.093 402.424L166.511 399.042C162.779 403.058 156.97 409.126 151.124 408.989C149.647 408.94 148.197 408.583 146.867 407.94C145.537 407.298 144.356 406.385 143.399 405.259C142.485 404.217 141.806 402.99 141.409 401.662C141.012 400.333 140.906 398.935 141.098 397.563L153.375 311.172C153.928 307.817 155.627 304.756 158.183 302.512C160.739 300.268 163.994 298.978 167.394 298.862H184.696L185.393 294.001L167.356 293.963Z" fill="#005286"/>
<defs>
<linearGradient id="paint0_linear_502_47" x1="387.522" y1="-13.7945" x2="387.522" y2="394.657" gradientUnits="userSpaceOnUse">
<stop stop-color="#FFD626"/>
<stop offset="1" stop-color="#FFA300"/>
</linearGradient>
<linearGradient id="paint1_linear_502_47" x1="560.387" y1="12.2272" x2="559.626" y2="235.212" gradientUnits="userSpaceOnUse">
<stop stop-color="#FFD626"/>
<stop offset="1" stop-color="#FFA300"/>
</linearGradient>
<linearGradient id="paint2_linear_502_47" x1="476.901" y1="40.919" x2="476.694" y2="99.9173" gradientUnits="userSpaceOnUse">
<stop stop-color="#0069A5"/>
<stop offset="1" stop-color="#003D6B"/>
</linearGradient>
</defs>
</svg>
