<svg width="198" height="135" viewBox="0 0 198 135" fill="none" xmlns="http://www.w3.org/2000/svg">
<path d="M198 37.4017C198 42.9524 193.334 47.6281 187.795 47.6281C182.255 47.6281 177.589 42.9523 177.589 37.4017C177.589 31.851 182.256 27.1752 187.795 27.1752C193.334 27.1752 198 31.557 198 37.4017ZM10.2053 26.2978C4.66602 26.2978 0 30.9736 0 36.5243C0 42.075 4.66615 46.7507 10.2053 46.7507C15.7444 46.7507 20.4106 42.0749 20.4106 36.5243C20.413 30.9735 15.7468 26.2978 10.2053 26.2978ZM98.2685 0C92.7292 0 88.0632 4.67581 88.0632 10.2264C88.0632 15.7772 92.7293 20.4528 98.2685 20.4528C103.808 20.4528 108.474 15.777 108.474 10.2264C108.474 4.67328 104.101 0 98.2685 0ZM34.6994 121.558L38.4901 135H156.004L160.67 121.558H34.6994ZM178.167 45.8751C168.835 54.3492 153.381 65.4531 137.925 65.4531C119.554 65.4531 106.724 37.1086 101.183 22.7895C100.307 23.0811 99.1408 23.0811 98.2676 23.0811C97.3921 23.0811 96.519 23.0811 95.6435 22.7895C90.3953 37.1086 76.6904 65.4531 56.568 65.4531C39.948 65.4531 26.2403 54.6411 18.3681 46.4607C16.9105 47.6296 15.4529 48.2129 13.702 48.7986L31.7819 111.327H164.166L183.413 49.3786C181.371 48.7929 179.622 47.6239 178.165 45.8717L178.167 45.8751Z" fill="#CCB768"/>
<path d="M110.536 46.2727V119H95.1591V60.8679H94.733L78.0781 71.3082V57.6719L96.0824 46.2727H110.536Z" fill="white"/>
<path fill-rule="evenodd" clip-rule="evenodd" d="M110.536 41.2727C113.297 41.2727 115.536 43.5113 115.536 46.2727V119C115.536 121.761 113.297 124 110.536 124H95.1591C92.3977 124 90.1591 121.761 90.1591 119V69.6363L80.7338 75.5447C79.1927 76.5107 77.2486 76.5637 75.6572 75.6831C74.0658 74.8024 73.0781 73.127 73.0781 71.3082V57.6719C73.0781 55.9583 73.9557 54.364 75.4035 53.4474L93.4077 42.0482C94.2078 41.5416 95.1354 41.2727 96.0824 41.2727H110.536ZM94.733 60.8679H95.1591V119H110.536V46.2727H96.0824L78.0781 57.6719V71.3082L94.733 60.8679Z" fill="#B49364"/>
</svg>
