<?xml version="1.0" encoding="utf-8"?>
<!-- Generator: Adobe Illustrator 16.0.0, SVG Export Plug-In . SVG Version: 6.00 Build 0)  -->
<!DOCTYPE svg PUBLIC "-//W3C//DTD SVG 1.1//EN" "http://www.w3.org/Graphics/SVG/1.1/DTD/svg11.dtd">
<svg version="1.1" id="Layer_1" xmlns="http://www.w3.org/2000/svg" xmlns:xlink="http://www.w3.org/1999/xlink" x="0px" y="0px"
	 width="157.416px" height="53.664px" viewBox="0 0 157.416 53.664" enable-background="new 0 0 157.416 53.664"
	 xml:space="preserve">
<polyline fill="#BC3F48" points="105.276,22.799 130.825,27.542 129.688,33.668 123.296,39.467 117.555,40.987 108.229,38.598 
	105.183,29.467 "/>
<g>
	<path d="M0,22.919v-0.12C0,10.919,8.879,1.08,21.239,1.08c7.62,0,12.18,2.7,16.379,6.66l-3.24,3.48c-3.54-3.36-7.5-5.76-13.2-5.76
		c-9.299,0-16.259,7.56-16.259,17.219v0.12c0,9.72,7.02,17.339,16.259,17.339c5.76,0,9.54-2.22,13.56-6.06l3.12,3.06
		c-4.38,4.44-9.18,7.379-16.799,7.379C8.939,44.518,0,34.979,0,22.919z"/>
	<path d="M52.438,6.18H38.339V1.8h32.999V6.18h-14.1v37.619h-4.8V6.18z"/>
	<path d="M73.319,1.8h30.179V6.18H78.059v15h22.739v4.32H78.059v18.299h-4.74V1.8z"/>
	<path d="M128.143,28.319v-0.12c0-7.14-5.459-11.939-11.219-11.939c-6,0-10.92,4.44-10.92,11.939v0.12c0,7.32,5.1,12,10.92,12
		C122.684,40.318,128.143,35.458,128.143,28.319z M102.264,28.379v-0.12c0-10.139,6.38-15.139,13.82-15.139
		c5.76,0,9.479,2.12,11.879,5.6V0h4.62v43.798h-4.62v-6.24c-2.52,3.72-6.18,5.9-11.879,5.9
		C108.644,43.458,102.264,38.579,102.264,28.379z"/>
</g>
<path fill="#BC3F48" d="M145.362,7.49C139.198,0.592,133.308,0,133.308,0v29.406c0,0,4.568-6.611,13.09-8.43
	c5.713-1.219,8.5-3.59,11.019-6.273C157.416,14.703,151.106,13.916,145.362,7.49"/>
<path fill="#FFFFFF" d="M119.754,30.537c0.293-1.602-0.769-3.137-2.37-3.426c-1.602-0.293-3.135,0.769-3.428,2.37
	c-0.223,1.221,0.346,2.402,1.34,3.021l-1.872,3.388l4.569,0.834l-0.557-3.831C118.585,32.662,119.534,31.757,119.754,30.537"/>
<path fill="#F2F2F2" d="M132.585,51.798c0,1.029-6.787,1.865-15.16,1.865c-8.374,0-15.162-0.836-15.162-1.865
	s6.788-1.865,15.162-1.865C125.798,49.933,132.585,50.769,132.585,51.798"/>
</svg>
