<svg width="401" height="581" viewBox="0 0 401 581" fill="none" xmlns="http://www.w3.org/2000/svg">
<path d="M19.2202 483.907L21.1552 481.601L69.774 536.614L67.839 538.92L19.2202 483.907Z" fill="white" fill-opacity="0.75"/>
<path d="M47.5906 457.154C44.285 453.413 30.497 470.46 22.8895 479.526L42.4729 501.686C49.2445 492.589 63.6563 475.377 67.1243 479.303C68.8469 481.252 67.8143 482.332 68.6754 483.305C70.9797 485.912 85.5993 466.081 87.5541 463.195L71.612 459.519L67.9344 441.042C64.5954 445.982 51.2289 463.565 49.163 461.226C48.0595 459.978 48.8901 458.624 47.5906 457.154Z" fill="white" fill-opacity="0.75"/>
<path d="M31.4842 303.727L66.3661 349.974C61.7047 350.604 56.7389 353.387 52.9183 357.966C46.2256 366.008 45.5958 376.53 51.5239 381.472C57.452 386.413 67.6874 383.895 74.3865 375.86C80.2125 368.916 81.4293 360.085 77.8097 354.64L77.7647 354.602C77.5808 354.338 77.3807 354.093 77.1796 353.836L55.6374 325.567C66.8046 317.013 74.4776 313.966 78.6562 316.424C82.8691 318.926 86.0133 322.891 87.4929 327.566C89.0505 318.742 86.7594 311.252 80.6195 305.096C74.4796 298.939 58.1011 298.483 31.4842 303.727Z" fill="#FBA6CF" fill-opacity="0.5"/>
<path d="M68.0745 9.76736C69.6928 11.1253 69.9119 13.6328 68.5536 15.2516C67.1953 16.8703 64.6878 17.09 63.0695 15.7321C61.4512 14.3741 61.2321 11.8666 62.5904 10.2479C63.9487 8.62911 66.3705 8.3375 68.0745 9.76736ZM18.787 61.9313C17.4287 63.55 17.6478 66.0575 19.2661 67.4155C20.8844 68.7734 23.3919 68.5537 24.7501 66.9349C26.1084 65.3162 25.8894 62.8087 24.2711 61.4508C22.6533 60.0921 20.1459 60.3118 18.787 61.9313ZM32.7141 29.7624C31.3558 31.3812 31.5749 33.8886 33.1932 35.2466C34.8116 36.6045 37.319 36.3848 38.6773 34.7661C40.0356 33.1473 39.8165 30.6398 38.1982 29.2819C36.5791 27.9233 34.1443 28.0579 32.7141 29.7624ZM52.5671 78.0782L57.4157 80.2589L86.2319 45.917L83.4571 41.265L52.5671 78.0782ZM65.6816 17.6363C65.8639 22.4366 65.3118 29.6693 61.5218 34.186C57.0169 39.5547 45.6069 36.3697 40.0732 34.4861C39.9435 34.8133 39.6575 35.1542 39.4434 35.4093C39.2287 35.6652 39.0146 35.9203 38.7149 36.1048C41.6027 41.1416 46.5061 52.081 41.5718 57.9615C37.4963 62.8185 30.9827 64.1793 26.6672 64.4785C26.6506 65.1905 26.4633 65.7591 26.2047 66.4141L48.8687 76.4277L81.3313 37.7403L67.9895 16.9603C67.318 17.4138 66.5484 17.6388 65.6801 17.6361L65.6816 17.6363Z" fill="#FFFFC7" fill-opacity="0.75"/>
<path fill-rule="evenodd" clip-rule="evenodd" d="M29.3642 214.079C29.6049 216.83 32.03 218.865 34.7809 218.624L83.6845 214.346C86.4354 214.105 88.4704 211.68 88.2297 208.929L83.9512 160.026C83.7105 157.275 81.2854 155.24 78.5344 155.48L29.6309 159.759C26.88 160 24.845 162.425 25.0857 165.176L29.3642 214.079ZM45.8921 194.382C46.1328 197.133 48.5579 199.168 51.3089 198.927L63.9877 197.818C66.7386 197.577 68.7736 195.152 68.5329 192.401L67.4237 179.722C67.183 176.971 64.7578 174.937 62.0069 175.177L49.328 176.286C46.5771 176.527 44.5422 178.952 44.7829 181.703L45.8921 194.382Z" fill="white" fill-opacity="0.75"/>
</svg>
