<?xml version="1.0" encoding="UTF-8"?>
<svg width="64px" height="64px" viewBox="0 0 64 64" version="1.1" xmlns="http://www.w3.org/2000/svg" xmlns:xlink="http://www.w3.org/1999/xlink">
    <title>Artboard</title>
    <g id="Artboard" stroke="none" stroke-width="1" fill="none" fill-rule="evenodd">
        <g id="ctfd" transform="translate(2.407427, 8.500000)" fill-rule="nonzero">
            <polyline id="Path" fill="#BC3F48" points="3.23220238 24.4657975 30.6490479 29.5555505 29.4289237 36.1294123 22.5696151 42.3523677 16.4088999 43.9834924 6.40109137 41.4198365 3.13240331 31.6212841"></polyline>
            <g id="Group" fill="#000000">
                <path d="M27.7709713,30.3893557 L27.7709713,30.2605827 C27.7709713,22.598589 21.9128727,17.448742 15.7317686,17.448742 C9.29311841,17.448742 4.01342527,22.2133431 4.01342527,30.2605827 L4.01342527,30.3893557 C4.01342527,38.2445089 9.48627791,43.266656 15.7317686,43.266656 C21.9128727,43.2655829 27.7709713,38.0502763 27.7709713,30.3893557 Z M0,30.4537422 L0,30.3249692 C0,19.4447235 6.84643134,14.0791817 14.8303576,14.0791817 C21.0114617,14.0791817 25.0023517,16.3541714 27.5778118,20.0885885 L27.5778118,0 L32.5355724,0 L32.5355724,47 L27.5778118,47 L27.5778118,40.3038038 C24.8735787,44.2957669 20.9460021,46.6351432 14.8303576,46.6351432 C6.84643134,46.6351432 0,41.3994475 0,30.4537422 Z" id="Shape"></path>
            </g>
            <path d="M46.2488241,8.03758162 C39.6341842,0.63528015 33.313576,0 33.313576,0 L33.313576,31.5558245 C33.313576,31.5558245 38.215535,24.4615051 47.3605644,22.509521 C53.4912325,21.2014019 56.4819855,18.657062 59.1851454,15.7779122 C59.1840723,15.7779122 52.4127586,14.933376 46.2488241,8.03758162" id="Path" fill="#BC3F48"></path>
            <path d="M18.7686652,32.76951 C19.083086,31.0503904 17.9434449,29.4031691 16.2253984,29.0930408 C14.5062788,28.77862 12.8612037,29.9182611 12.546783,31.6363076 C12.3074798,32.9465729 12.9180785,34.2139139 13.9847482,34.878168 L11.9758893,38.5138591 L16.8789214,39.4088315 L16.2812001,35.2977533 C17.5142016,35.0498653 18.5325814,34.0787022 18.7686652,32.76951" id="Path" fill="#FFFFFF"></path>
        </g>
    </g>
</svg>