<svg xmlns="http://www.w3.org/2000/svg" xmlns:xlink="http://www.w3.org/1999/xlink" viewBox="0 0 315.77 315.77"><defs><style>.cls-1{fill:none;}.cls-2{fill:url(#linear-gradient);}.cls-3{fill:url(#linear-gradient-2);}.cls-4{fill:url(#linear-gradient-3);}.cls-5{fill:#005286;}.cls-6{clip-path:url(#clip-path);}</style><linearGradient id="linear-gradient" x1="-1065.93" y1="4266.69" x2="-1065.93" y2="4050.38" gradientTransform="matrix(1, 0, 0.15, -0.99, 526.93, 4269.2)" gradientUnits="userSpaceOnUse"><stop offset="0" stop-color="#00e5ea"/><stop offset="1" stop-color="#00b5cc"/></linearGradient><linearGradient id="linear-gradient-2" x1="1305.65" y1="3072.15" x2="1305.25" y2="2955.13" gradientTransform="matrix(1, 0, 0, -1, -1109.25, 3126.26)" xlink:href="#linear-gradient"/><linearGradient id="linear-gradient-3" x1="130.49" y1="62.36" x2="130.49" y2="96.15" gradientUnits="userSpaceOnUse"><stop offset="0" stop-color="#0069a5"/><stop offset="1" stop-color="#003d6b"/></linearGradient><clipPath id="clip-path"><rect class="cls-1" x="545.97" y="448.55" width="317.09" height="317.09"/></clipPath></defs><g id="Project_SEKAI_Square_Black_copy" data-name="Project SEKAI Square Black copy"><polygon class="cls-2" points="89.42 49.7 98.29 49.7 66.21 263.63 57.34 263.63 89.42 49.7"/><path class="cls-3" d="M203.54,63.07c2.19-14.55-62.41-13.38-97.28-13.38L93.34,135.86c33.36-2,99.5-2,97.21,13.27-1.14,7.58-5.53,7.29-6.1,11.08-1.52,10.13,70.93,5.61,81.14,4.52L243.7,121.79l34.74-43.3c-17.47,1.82-82.48,5-81.11-4.14C198.06,69.47,202.69,68.78,203.54,63.07Z"/><path class="cls-4" d="M134.08,61.23l-5.8,25.23a9.77,9.77,0,0,0-6.58-2.3c-4.67,0-8.44,2.82-8.43,6.27s3.81,6.23,8.47,6.22c4,0,7.4-2.12,8.23-4.93h0v0c0-.14.07-.28.1-.42l3.48-15.5c6.12,1.36,9.36,3.12,9.71,5.25A8.9,8.9,0,0,1,142,87.26a10.75,10.75,0,0,0,5.7-8.81Q148.21,72.63,134.08,61.23Z"/><path class="cls-5" d="M114,178.83a11.16,11.16,0,0,0-8.59-3.77H92.07L79.54,263.65h3.77l6-42.12h10a14.73,14.73,0,0,0,14.15-12.29l3-21.37A11.17,11.17,0,0,0,114,178.83Zm-1.15,8.52-3,21.37a10.89,10.89,0,0,1-10.47,9.09H89.79l5.53-39.12H105.4a7.37,7.37,0,0,1,7.41,8.66Z"/><path class="cls-5" d="M149.24,178.83a11.16,11.16,0,0,0-8.59-3.77H127.37l-12.53,88.59h3.77l6-42.12h9.24L139.88,263h3.75l-6.13-41.76a14.83,14.83,0,0,0,11.25-11.95l3-21.37A11.17,11.17,0,0,0,149.24,178.83Zm-1.15,8.52-3,21.37a10.88,10.88,0,0,1-10.47,9.09h-9.51l5.53-39.12h10.06a7.37,7.37,0,0,1,7.41,8.66Z"/><polygon class="cls-5" points="227.5 175.06 223.31 175.06 198.34 223.07 205.13 175.06 201.36 175.06 188.83 263.64 192.6 263.64 196.77 234.12 206.62 215.19 218.32 263.64 222.14 263.64 209.23 210.17 227.5 175.06"/><path class="cls-5" d="M164.76,263.79h0a13.45,13.45,0,0,1-10.25-4.32A10.51,10.51,0,0,1,152,251l1.22-8,4.09-2.17-1.64,10.69A6.73,6.73,0,0,0,157.3,257a9.76,9.76,0,0,0,7.45,3h0c6,0,11.39-4.08,12.1-9.09l5-35.58-26.71,14.17,5.91-42.71c.95-6.78,8-12.29,15.76-12.29h0a13.48,13.48,0,0,1,10.26,4.31,10.54,10.54,0,0,1,2.48,8.49l-1.14,8.09-4,2.15,1.52-10.76a6.76,6.76,0,0,0-1.62-5.53,9.76,9.76,0,0,0-7.45-3h0c-6,0-11.38,4.08-12.09,9.09l-4.91,35.52,26.74-14.19-6.06,42.8C179.57,258.27,172.49,263.79,164.76,263.79Z"/></g><g id="SEKAI_CTF_Square_Black_BG" data-name="SEKAI CTF Square Black BG"><g class="cls-6"></g></g></svg>